<mxfile host="41a25135-5fbc-4ea5-adab-c87d8077002d" modified="2020-10-20T14:44:22.271Z" agent="5.0 (X11; Linux x86_64) AppleWebKit/537.36 (KHTML, like Gecko) VSCodium/1.50.1 Chrome/83.0.4103.122 Electron/9.2.1 Safari/537.36" etag="3tss8pJu3Mh5I_C2n_0W" version="13.6.5">
    <diagram id="pUni1xHuyVBNJpsEQ7CS" name="Page-1">
        <mxGraphModel dx="1373" dy="1693" grid="1" gridSize="10" guides="1" tooltips="1" connect="1" arrows="1" fold="1" page="1" pageScale="1" pageWidth="827" pageHeight="1169" math="0" shadow="0">
            <root>
                <mxCell id="0"/>
                <mxCell id="1" parent="0"/>
                <mxCell id="YhanQV5VRjauVLp4hsJx-1" value="" style="rounded=0;whiteSpace=wrap;html=1;strokeColor=none;fillColor=#FFFF66;" parent="1" vertex="1">
                    <mxGeometry x="610" y="160" width="190" height="920" as="geometry"/>
                </mxCell>
                <mxCell id="YhanQV5VRjauVLp4hsJx-2" value="" style="shape=link;html=1;width=36;" parent="1" edge="1">
                    <mxGeometry width="100" relative="1" as="geometry">
                        <mxPoint x="30" y="1120" as="sourcePoint"/>
                        <mxPoint x="800" y="1120" as="targetPoint"/>
                    </mxGeometry>
                </mxCell>
                <mxCell id="YhanQV5VRjauVLp4hsJx-3" value="&lt;b&gt;sales@tripattern.com&lt;/b&gt;" style="text;html=1;align=center;verticalAlign=middle;resizable=0;points=[];autosize=1;" parent="1" vertex="1">
                    <mxGeometry x="370" y="1110" width="140" height="20" as="geometry"/>
                </mxCell>
                <mxCell id="YhanQV5VRjauVLp4hsJx-4" value="" style="rounded=0;whiteSpace=wrap;html=1;align=left;strokeColor=none;fillColor=#FFC107;" parent="1" vertex="1">
                    <mxGeometry x="30" y="160" width="550" height="590" as="geometry"/>
                </mxCell>
                <mxCell id="YhanQV5VRjauVLp4hsJx-5" value="" style="endArrow=none;html=1;strokeWidth=3;" edge="1" parent="1">
                    <mxGeometry width="50" height="50" relative="1" as="geometry">
                        <mxPoint x="30" y="120" as="sourcePoint"/>
                        <mxPoint x="800" y="120" as="targetPoint"/>
                    </mxGeometry>
                </mxCell>
                <mxCell id="YhanQV5VRjauVLp4hsJx-6" value="&lt;font style=&quot;font-size: 34px&quot;&gt;Awesome Product&lt;/font&gt;" style="text;html=1;align=center;verticalAlign=middle;resizable=0;points=[];autosize=1;" vertex="1" parent="1">
                    <mxGeometry x="510" y="80" width="290" height="30" as="geometry"/>
                </mxCell>
                <mxCell id="YhanQV5VRjauVLp4hsJx-7" value="" style="shape=image;verticalLabelPosition=bottom;labelBackgroundColor=#ffffff;verticalAlign=top;aspect=fixed;imageAspect=0;image=data:image/png,iVBORw0KGgoAAAANSUhEUgAAArwAAAMCCAYAAACLDRXyAAAgAElEQVR4Xuxd61UbydY9R6yh+TeeCIaJYHACCCIwjsAQgSEC4wiMI7AcgUUEVpPAyBGMJoIr/tF8i6pvVXcLJCGpX/Xu3WvNunOHeu5zurXr1Hkw4QECQAAIAAEgAASAABAAAhEjwBHvDVsDAkAACAABIAAEgAAQAAIEwgslAAJAAAgAASAABIAAEIgaARDeqMWLzQEBIAAEgAAQAAJAAAiA8EIHgAAQAAJAAAgAASAABKJGAIQ3avFic0AACAABIAAEgAAQAAIgvNABIAAEgAAQAAJAAAgAgagRAOGNWrzYHBAAAkAACAABIAAEgAAIL3QACAABIAAEgAAQAAJAIGoEQHijFi82BwSAABAAAkAACAABIADCCx0AAkAACAABIAAEgAAQiBoBEN6oxYvNAQEgAASAABAAAkAACIDwQgeAABAAAkAACAABIAAEokYAhDdq8WJzQAAIAAEgAASAABAAAiC80AEgAASAABAAAkAACACBqBEA4Y1avNgcEAACQAAIAAEgAASAAAgvdAAIAAEgAASAABAAAkAgagRAeKMWLzYHBIAAEAACQAAIAAEgAMILHQACQAAIAAEgAASAABCIGgEQ3qjFi80BASAABIAAEAACQAAIgPBCB4AAEAACQAAIAAEgAASiRgCEN2rxYnNAAAgAASAABIAAEAACILzQASAABIAAEAACQAAIAIGoEQDhjVq82BwQAAJAAAgAASAABIAACC90AAgAASAABIAAEAACQCBqBEB4oxYvNgcEgAAQAAJAAAgAASAAwgsdAAJAAAgAASAABIAAEIgaARDeqMWLzQEBIAAEgAAQAAJAAAiA8EIHgAAQAAJAAAgAASAABKJGAIQ3avFic0AACAABIAAEgAAQAAIgvNABIAAEgAAQAAJAAAgAgagRAOGNWrzYHBAAAkAACAABIAAEgAAIL3QACAABIAAEgAAQAAJAIGoEQHijFi82BwSAABAAAkAACAABIADCCx0AAkAACAABIAAEgAAQiBoBEN6oxYvNAQEgAASAABAAAkAACIDwQgeAABAAAkAACAABIAAEokYAhDdq8WJzQAAIAAEgAASAABAAAiC80AEgAASAABAAAkAACACBqBEA4Y1avNgcEAACQAAIAAEgAASAAAgvdAAIAAEgAASAABAAAkAgagRAeKMWLzYHBIAAEAACQAAIAAEgAMILHQACQAAIAAEgAASAABCIGgEQ3qjFi80BASAABIAAEAACQAAIgPBCB4AAEAACQAAIAAEgAASiRgCEN2rxYnNAAAgAASAABIAAEAACILzQASAABIAAEAACQAAIAIGoEQDhjVq82BwQAAJAAAgAASAABIAACC90AAgAASAABIAAEAACQCBqBEB4oxYvNgcEgAAQAAJAAAgAASAAwgsdAAJAAAgAASAABIAAEIgaARDeqMWLzQGBFwTkz4NDGogPxX8ZzIhpxscPKTACAn1BQP787YgGe38TicN8z2LwnU8fZn3ZP/YJBPqMAAhvn6WPvfcOAZnuj4i4JL3l9pkmJGlKLCf09JjyKc17Bww2HB0C8ie9ob2Dv0mKE2I+IUkna5u85WF2Ft3GsSEgAAQ2IgDCC8UAAj1DYCPpXcVgSlJOiQcTEpTCAtYzBQl0u8UNBg2J5BFRTm7V/25+JP0imZ3gcBeosLFsINACARDeFqChCxAIHYEapHd5i3OScgwCHLrU41r/M8FdWHCJCjeF6ueWRHYOslsNFFoAgZgQAOGNSZrYCxBogEBD0rs88oyknNCAxnz8eNtgSjQFAp0QkHf770jQWe6iUJ/gLs0pv/Pw8bzTItAZCACBIBEA4Q1SbFg0ENCDQAfSu1hAYf0F+dUjEIzyCoElkqv8bd+0hwhktz126AkEwkcAhDd8GWIHQKATAhpI7wv5JRqR4K/w++0kkt53zgPOBvsfifiyG8ldQAmy23ulAgC9RwCEt/cqAACAAJFG0lvAKeWIpPzKp/83Bb5AoC4CuV8ui0/ErNHtAGS3Lv5oBwRiRgCEN2bpYm9AoAEC2kmvmlulPHviC1h8Gwiih03NEN385AWf3R7qE7YMBDYhAMILvQACQOAZASOktzD5XpN4/IrIeCjbOgIy3f+kz3VheXSQXWgbEAACLwiA8EIbgAAQWEHAHOmlGbG84uPHMSAHAvLnwQkN5Ld22Raq8APZrUIIfwcCfUMAhLdvEsd+gUANBAySXrg51MA/5iaF+4L8QkyGqpyB7MasP9gbEGiLAAhvW+TQDwhEjoBR0ptjJ695+Pg5chixvSUEZJp8JKJrPZkXNkELsguFAwJAYDMCILzQDCAABLYiYJz05kFt2Xv49sathHmaMU6+mbPq5gcoBKjFrUbYHRDohAAIbyf40BkIxI+AcdJLNCfB7/n0YRI/mv3boVlf3QWeILv90yzsGAg0QwCEtxleaA0EeomABdKrcL3hYXbVS4Aj3XSZgUG5MBh8QHYNgouhgUA0CIDwRiNKbAQImEXAEumdltbemdndYHSTCOQuDHvJD5J0YnIeuDGYRRejA4GYEADhjUma2AsQMIyAJdI7JyFOUaXNsDANDS9//nZEg8FPc4Fpi4XDsmtIhBgWCESJAAhvlGLFpoCAOQSskV7mKz5+GJnbCUbWjYA9sku3PMwMpTXTjQrGAwJAwAcEQHh9kALWAAQCQ8AS6SVivgDpDUM55N3BOUn5xbhlV9IvktkJMnuEoRdYJRDwBQEQXl8kgXUAgcAQkJNkSkx/W1j2JQ+zrxbmwRQtESjJrqqaZvYB2TWLL0YHAhEjAMIbsXCxNSBgEoEyt+rECumVcsQnjxcm94Ox2yFgJxODSrMLy247CaEXEAACCgEQXugBEAACrREA6W0NXRQd5WT/GzGfG98M03/0lB3BjcE40pgACESLAAhvtKLFxoCAHQTKFFRTkvSn8Rlh6TUOcd0J5F1ySZKUz67p556EOEHWDtMwY3wgEDcCILxxyxe7AwJWECij81WltN+NT4hANuMQV01gzWeXCGS3Shj4OxAAArUQAOGtBRMaAQEgUIUASG8VQsXfc7JI8g0fZzf1evjVSt7tn5HkH1ZWJcRbWHatII1JgED0CIDwRi9ibBAI2ENA/jw4oYFURQfMP4JP+fRBWZWDemSajInoTx5mb4NauCLr1opKqAgTpKQLTT+wXiDgMwIgvD5LB2sDAgEiYPG6O8iKbDJN/qdy1fIwC+r7C7Ib4MuIJQMBIPCMQFAfXMgNCACBMBCwGNA0J5H9FUr0vvx5cEgD+W8uxYAs1Hlg4iBRlvsj8xqIksHmMcYMQKB/CIDw9k/m2DEQsIKAtWpsksZ8kr23sqmOk6y4fAR0ZW8t/RihZHBHFUN3IAAEtiAAwgvVAAJAwBgCMk2Uj+3Q2ASLgZmuQggCk+nBNZH8VCybP/Pw4do4Nh0nsBakhsISHSWF7kAACOxCAIQX+gEEgIAxBCwWppiT4Ld8+jAzthkNA69ZvVMeZicahjU2ROnKoFww3hibpBj4nkR2GIprimEsMDwQAAIGEADhNQAqhgQCQOAFAXvpyvz3/VyzeM94mP3ls67INFGp0z4aXiNy7RoGGMMDASCA0sLQASAABCwgYC1dmeeBYDJN5ArcIvvDV6vmSoCdSR0JyJfZJAwYGwgAAbMIwMJrFl+MDgSAQImAlcwNTBM+zk59BL20dP+zSnj9zSVsKejwKw+zSx/lhTUBASAQFwIgvHHJE7sBAl4jYIVEeWrl3Zif2NNgO0vWXe99mL1+mbA4IAAEGiEAwtsILjQGAmYRyK2Ae3u/09PDL1+vursgYCeIzU9f3tUMDQsUfV3r/oiIP3SRdUXfaIPUch3fO/ibnp7uURbZoAZhaCDQEAEQ3oaAoTkQ6IKAvDsYkpQqef8hMR2RpMP836sepgkJOSPmqfqHjx/Sqi6+/t1KEJvgv3zL2LAlRZt3Vk4rmRk8tcLXfWee32P1Lg/4kGRekKMqk8WMmGbFe0wz4sEk5Pe4LlZoBwR8QQCE1xdJYB1RIlCSuw8ludWdgmpKRCMSIg3NkmTBn9c731CZJiq916vDjW8lhs2Xhg4j//DyB6l08XhHROcGqs2p93hCzGMQ4Ch/BrApTxAA4fVEEFhGPAjkGQlYfCBmRXCrrbd6tj4j4msSD7ehuELINBkTkSIRJh7vUn69ytCw2LVn1miZJiqwzkwJYUm/+CQzM7ZmLSos3QfviKQKqrO15jlJOaYBjfn48VbzljAcEOg1AiC8vRY/Nq8LgfIaWPk8qh9HWyR30/KLH0w5+Ozblf76YkvMVKGI33XJYWUcId76YvnemKHhhfCe8umDqkjn/DEcrHZPgo/C0Mv9j0Ss3uUqNwWTMpsRyRGJwXffMTMJAsYGAroQAOHVhSTG6SUCOUFg8YmY1VWnX4+UI9+Jr+Gytd64Nex2E/Dnit+oq4mnGSkWL21xAPOC6L7+jgTwLvv18cNqgMBrBEB4oRVAoAUCXhPd1f3MieQNDx8/t9imlS4GXRumPMzeWtlExSSbMzQ8U63vPHz04sBkUBbeBecti0ymiaomd+3YolutqiC+1RihBRDYggAIL1QDCDRAoLyG/1S6LjTo6bzpjARf+HJ1vkI2cstaYsS1wZeAsC0ZGhYweETMk/8ZIH3eujKUFQC/WPTR1fMhyInv41Uo/vp6No1RgEA3BEB4u+GH3j1CIBgr0C6ZSBqTzC58+6E05trgSforme4mkj4Q851+xl3ecw9dGQI+uC5Lwvvbmy5qg75AQDcCILy6EcV40SFQEoFvwVmBtktiTiwv+PhRZUnw5jFzne7eP7YWkfSAmBvy3/XOlaG06qr32WVwqc73ztvbG52bxFhAoCsCILxdEUT/aBGIxAq0Sz43PMyufBFgmSFA5STVmbXBOeGql9fWA2KeGqiu5l3Ktf1Pefq+OJ8bEtln325v4oQauwoRARDeEKWGNRtHIEIr0DbMpiT4vS9pjwxYGZ37x9a0XPuwTpUabajv5XJP4hd7Kcr9Jj9Iku7iL/rg0jMSrL16cMQoESIAwhuhULGlbgjINFFBLCoHZ18er1wc5CSZEtPfusB37R9b5b/7vE+R/eHSOretElwrOTD9R0/Zkcv9vJDd345oMPhpIBivFTSWOsHaawloTBMOAiC84cgKKzWMQIS+ug0Rk9c+pC8rreuKoOh5HF6rNwrGY77g44eRnk03H2VrJbjmQxGxfO+Dj3gZaHrTZgsR9JmREO99Kb4SAZ7YQuAIgPAGLkAsXw8CUWRg0AGFJ1kcpE5/UocBYTJNFNlSOV5rPNJZPt5agXU1dlA2ce43rdYhJ/vfvCwIUx9HTS39OMhq2gyGAQKtEQDhbQ0dOsaAQO7bx8k3YjqLYT+a9uDcr1drAJtbwvtvg2wAcx5mf2iSYaNhtFrVHVrUc6Jb5HVWNwRHjUCIuTHThJ7yPNwq3zUeINBLBEB4eyl2bLr4YTw4oYH80TPfvrrCn5MQpy6vQ3dXJ6u7DSJylAe2ldXUkSuAPsLrzkoNslv5Tnjlq1+5WjQAApoRAOHVDCiGCwMBmUadnkiXEJyS3tJSp6ECm5tsAc3cGRYic0MYNWXHuCeRHboKVCsPGH0LTmvzrnuVjrDNBtAHCLRBAIS3DWroEywCPUpPpEtGbknv3cE5SamKBHR4nBHeJu4Mi/05cWvQY013g3Nh2e1lJoYO7wRNSWSnrg4nXRaOvkCgLQIgvG2RQ7/gEKjh23dPRKrwwZSI58RiSk+DebHRp/niej8fhw5e+wcOFjk+5Zvcf5DpkCT9GRxQrxfsmPQms2442idirdwZFrg7cGvQQHidWXejIrsqnZukGZGcEQ0Kf1tBKj/y2vMwXZDVfP+0p745RHviDcnBEVGtbxBIbwQfZ2yhPgIgvPWxQsvAEVi5tpX0i1hOiXlKTzwlevkB0b3NPABLlTHdk0ck1T+syLC2PLO617tlPGekt16lsp0o3PIwsxqU2M6dYbEH+24N3Qmv/UOFQqs8xP7TIDDQ0utSMc2r7w/NTAWUPR/QF98fYvU9KgqMOPJv90MIWEXfEADh7ZvEe7zf4sP/26HLQKxl+PNAobBIsDOLkLzrZOW1niarYxEH624NHQmvE+tujRsbP752a+SWTx82WGztL7WwDP/fDG4N9rHHjG4QAOF1gztmBQKvECj8i/dPSPJJXgLVTyuwkxK4Ha28VglvJ3eGhVZYdmuoWf5481vrqGCGnCQ/vEwnmBNcmhDLCT09TkAo8bEHAn4gAMLrhxywCiCwmwCrPMG++ANLOeKTxwvbIutg5bVLePUUzbDqhiHTRFkdi2vuZo8b626jgh7NNtSi9T2RHBPTGAS3BXroAgQsIQDCawloTAMEuiJQWg7Pc6uWa/LrwKrXwcprmfAm/9OS21lkf9iyDrYnvPZ9dxuVa+760m3rXwSXjUmIkS8uUqa2inGBQCwIgPDGIknso1cIFOR374ykPHPk+uAkiE2micqa8XtDYVsjvB1I+estWQwoakl4rVt3ywp8KkityEpg8wHJtYk25gIC2hEA4dUOKQYEAnYRKEnAJRGdtyCDXRY7I5G9tWWFVAttGVxlkfAmP3P/az3PjIfZX3qG2j1KS8L7lYeZ0jsrj6MgtcJdQcgbWHKtiBmTAAFjCIDwGoMWAwMB+wiUFkZFfNv4YzZfsKQxn2Tvm3ds16MkPcploMljhfCWBw9VbELfI/jURlR/K8Ir+C9TqbQ2Adgt1VtDkajAswHf0NPD2OaBruEq0RwIAIEGCIDwNgALTfuDQE5e9uhPkkJlTDikQZ67kkjmV6mvi04QzYhVwvi8jSpeMSty/D78cvGDWZAvcU3EKv9sUxeAZoK2ePWew9s8KMwO4TUSSGUnJ28Lwms3qO5u/4wk/2immI1bO7fmyruDYZ6rW+Xt5vI7s+2bozJBLB5B8yKv+GBCT/SfzYNIY5TRAQg4QgCE1xHwmNYvBMofGuUPe0Qy/6HR6SOoiPC4TFOU2iTARaqzgzMieW0w0M2qP2+LtF+2CK+eYLX1V8NC8FpjwmsxbZpxv13lm0t0Q0/ZyOa7mR/e7vbf5WkIKXeD2XSQbv+hVIRYHb5ZTvj48bb9QOgJBOJAAIQ3DjliFw0RKH9E35X5bq1W4cqju5nHPHz43nDZnZobdnewWpRCTpJpg2A944RXa7DaupQtWNAbEV6m//g4K248LDwyTVSQml4yqNadE12+5uOHkYVtPE+Rk1zBRbYVm09BgFVmiRT+yDaBx1y+IADC64sksA7jCDyT3CK4S/8PaPMdzEnKMUn51eYPUF7hbSBVsNG75kve2cNaEFNDgmme8JoiZQXcxoPXGhWesEDAF1rWMkixSq1TEnxtwzf6eR/KxYjFJ+LcxUjn7VHVXrf9fUYkRyQG3+H+0BZC9AsNARDe0CSG9TZCoAhyOnhHlBM8H0ju5vXn1hce2bT6Lvn5fmgE6q7GtoKscrnm+W7rPEYJb3mA+FlnIa3bGHYhaEQsLQWrtXBdqYBXfredbSG35hJfaszc0VqFdnRUMQcjEnwL8msCXozpCwIgvL5IAuvQikBO5gqLirLmhvTM1DUriYdbW/6EmomvtVRl9a/hzRZHaGQdbauJTBM+zk7bdq/qV5vwSvrFJ5mVg6M+VwZFdAfKolsElVp4ZHrwIfebV8FnIT1SjkgOPtvEKiR4sNawEQDhDVt+WP0aAgET3XVZzonkDYnHr3aJr3L3yK3hXTI7WHFtkHeJspx9qX4JzBFeI6nItm3IoPW8NuElsiPb9OCaSH6qlu2uFiC6rfED8W0NHTr6iwAIr7+ywcoaIFC4Lux/zK8P/fCRa7D6nU0dEN/cDeSyE/EV4q1pv+T6V94GCW/zFGnt9cKglbe2W4ZB0r0ApuMh4r68nr+xaaUM1qJbrY03JLLPtg7d1ctBCyDQHgEQ3vbYoacnCJQ/NjeREV0PLL6diO+Uh9lb0yoi75JZZbo1QyStIzFrB40h/9mahPeeh5nxgCt516pa3T0R35B4uLFJziImusv6qcp5X/Mw+9pOadELCPiBAAivH3LAKlogUP5IqyttKz6FLZZookvu42s3uK0l8bUQzV+rCIUpkmjTuvusSeYKUcg0kRUKa7zYhGxXYOIriewaRNfE52ZlzBkJvrCZ3cL4jjBBrxAA4e2VuOPYbO6+wPtfAgxI0ykAl8S3rm/lnET2l0kiUocg8TDT/p1zYt1daI8pAl9lLTd8gCnLRqucuzUDveCjq/ODUnsslctX8pVNl5Haa0NDILADAe0/BEAbCJhEoCfuC00gdEB8VdliqVxIauTxNWeRVCCVJGlXejIjKckaBHk1kWXNtmYwrcx6YdgvuwGmKo/uuU3C1RPXhZr6lzeDm0MTtNDWCwRAeL0QAxZRhUBRIjf54Xk+y6ptmPy7C+KrClio1EvDnRsz5EO7mHN31TX95NB4qds6WmLAyltBOI3679YKQJT0iyRf2rxS76nbVB0NLNqo/OFPuZuDtZRv9ReHlkBgFQEQXmiE9wiU19bfIg9K0yUH6352ZdUzZfHdlsrMaKUwmSZq7o8bAWS+0F06tpbfsC5pbh3HAJHf7T9r1H+3IlDtnpiu+ThTcrby5ER3T37CAbsW3HNivtL9ntWaGY2AQAMEQHgbgIWm9hGQ6f6nvBADnmYIFJYXlUB+0qxju9ZlRTuVymyLf6/B1GC7iJpmS6hT39110Wh2MdjpHmLQf7cin7LVgDQQ3Xbvf95LyhGfPF50GAFdgYBRBEB4jcKLwdsiABeGtsit9bNOfHP/3tFGNwfNBG2x061Ejek/Ps5qBkDVw9sP6265VgN5ebe6hxiTXa4vKlBtPd1ZSkJcms7l/KJDsOjWewMqW01JZKcmA1UrV4AGQGALAiC8UA3vECj9+ZQLQ5/SjZmWw1TlKbWVzqy0lI1WcuQaIGjPhGVjhgG91/61/ExNS/GVlZdPdVrxt7iHGPPffXWAYPovT7t3/KAOTcYfWHSNQDwnIU5tHVaM7ACDRokACG+UYg13U2WQyA/46xqToQouUdWTvtuwwpSBUC+lig0FsG20vGr2321ZEMGYIMuBtRb42FKAwkymi5+5dfffF4D4s43CEeWNwAciUnqp9QbAtLADGh9+vQEJqy9LBeHti6QD2GcZ/KQsu3hsICDliAY05uPHW5PTLfn3XpoKPtroByqyP3SR+jr5fk1iuHNszf61Mk1UyqmlAEQz/tcvwY5yTGJwbTrSP7fQM3/sef5uy2oqr3n4+NnypJgOCGxEAIQXiuEFAjJNVMU0ZXHBYx+BOUk5Jim/hnoN+coyKekXn2RaXGKaF0SwLkCtBT5kmoxXciyzfM/Hj+q/BfeUbijKmnsGa64j8SGYzRHwmHYdARBe6IRzBORk/xusLs7FsFiAcnkYE/OYjx9Sb1ZVYyErpXE1Wj13pj2rsS47TfT5K7+6adGc6cI0HiC5phFuMX5enS270HXj0mIF6AIECIQXSuAMAWRicAZ93YkLy++AxvT0mPr+YyWXA9c0kTQvA9W2SU+Tf/Ra1gtjAWt1lbBOO3m3/44EnRHzCSy5dRBz0gYZHJzAjkkXCIDwQhecIFD+qP5EJgYn8LebVFlpVJozIVIfXR+er+J1ujOkiUqZpcU1oh3ojXrNSGRvdRxMltwajASsNdrVhsZlPuR3eWEIzt0V8ISBAEhvGHKKcpUgvFGK1e9Ngez6LZ+aq5uRlBPiwYQEpaYDjuqs6bk0rqbsDBWldussyUWbrzzMOvvCLwXpaRmvKxAFwaUhSXECK25XNJ33n5EQ7308NDtHBgswigAIr1F4Mfg6AiC70erEnCRNiOU0J8FPD790WBqboPWc+/cpO+o6d2lB3FQQocmS3LTVVCQidxEheWk7YK1wdTr4Oye3ko+Icws70oe50SZTsyJXrylkMe5WBEB4oRzWEADZtQa1LxPNiWlKQs6ISf0zJRqolFdkKiBO+dzqsBx5mnO3rly15ObN/Zfp/2ZdDw+bFi3vDobP/10RW+I3ObGVObEFua0r6bDbgfSGLb/gVg/CG5zIwlxwGfyjfHbXS4iGuSGsWicCBSFWxNiD1Ggbc/rq3K2Vsczkzm2y9PKA+wlEtglqvWsL0ts7kbvbMAivO+x7M3MAeUx7IwvvN6rJ/7btPoN2ZVjftCbXhg5YntBAqkMuHiCwCwGQXuiHFQRAeK3A3N9J4MbQX9k32jnTf6rkMR9nN436aW4sw8rKULV75xHxefAb8Q1J+rNqsfh7rxEA6e21+O1sHoTXDs69nAVkt5dib7rplJhHfPwwatpRd/tAszJUweBHlgVFfCWfr1Rwq1o5/t43BEB6+yZxy/sF4bUMeF+mA9nti6Rb7fOeiEYk+KZtOrMioGpv3rb/+qqDKjDRFHJNBSnUtPl7Tb8dtg0MLNOLnRPLc1h9mwqyF+215ZLuBVrYZCMEQHgbwYXGdRAA2a2DUi/bdLbm5rrFybe82ICm8sE98DGfk8j+0pFt4bnssCpA8sQXXQ4cZa5fWH17+SnYuWnnrjgQSZwIgPDGKVdnu/Ka7Co/UUkqt+iMaFBkBnhS/3/lmVX9iBdWroOi+taePCLJb4ikqvh0CKvVGpo55jwiQaMqXKuUtiRI38pMH/ckskMtJG6y/404v26P92Ga8HF22nWDZTnwaannc2K+6uqOklt99+QZCTonpr+7rjGq/s/fLJoW3yueFvt7mNbV/Tw/9eLZy79RZdo3ufjvLyni/AEPpNcfWUSzEhDeaETpx0bkJPnhuNSnui5XPwpTYp6WhLaSxOpEL78e3xuc5GVPKf/nd53jBzBW6bIgRm2vvtf3KNPkCxG9VBDTZd29OzgnKRWJ7sGjJ1XZUhW2AjMpRyQfr+oSsF1Al64livie9fDwqN6bSV6++4mnfPowsamUReEW8Ybk4Cg/wPh9RHMAACAASURBVBcltV1+u0B6bSpAD+YC4e2BkG1tUbqwlEn6lf9AsJzQ00D9SKxbbG1tf+s8PSHA90RyTExjnZW5Sovij/LwsMA45WH2YrVqKeGo/Xa3YaLJn1em+yMi/rA0zZQEv9f5/uUEbCDOifjMMfFqqWGV3ZYIrpjoOhxWztqgQWF9F+oWqzjA27bASxrzSfa+wZLRFAhsRQCEF8qhBQFrZLe44hsXBPdxosOqpAWABoNERICNkNwFlCUh/bFWeUuLK0MP/Ha3aeScBL/tSkxLX2pljVx2QVBjK9Kr3TJZWJWV33ZOvEJNceY9wa36jBUH0H1V8tkeAZZyxCePF1Vrw9+BQBUCILxVCOHvlQhYqEyVKsshPfG46w915WYcNHghwPKIiJV/nY8+dQqZ0l2EJySexiYtUjJNPqq8vK/EoctCeZf8XLMaO5C8syn1lR4eDBS5Xbv2ltc8fPxsanfFQWjvjEgelVXcfCXA6XO8gOH3xRTWVeM++18X7lvvqtq3/jtIb2vo0PEFARBeaEMnBJ6jtjuNsrHzLTGP6elhHKIVtysc+Q8J0SEN1A+JVOWYiyC54jFHiF+CZOZEZYCMIEVqrPhBr2RhWAdRl99umigirQh1fx9NBGLH+6/dxWGbsFbfFdVKHRzpDUmV0cNoEFy6tKYpEc+JxZSe5MzkYdBXpX2x/pIqNqLfDcVxFUZfcce66iMAwlsfK7RcQ+BV8Eo3hIxej3dbmr+9y3y0ihC/fnKyvPYU5HXDUz/q2xQahc9mHkBWRpGvzHTLw0z9iHZ6DB7QOq3LSWfzB4g5sbzQ6dPdFqeVTAXLgzxnWVn6jzlpHcw3zWXCXaPtnnzv9+yGopP8gvT6Lnav1wfC67V4/F1c6V/5s0wR1WGh8rvuQKcOi0FXBwjstOqq9ajARJmddLX09zJIrUqeulxEJolKm7U5pZiGnL1V28Df/UZAK/nVpLN+I4bVmUAAhNcEqpGPqYHs9tpdIXL1aLS90lf3esfB6Z6EOOl6RVxU+JL/dD+gNdpeCI21lHMtgwBVhpRtaazmRPLGpG9vCGBjjUQaCo5o0VnIon8IgPD2T+addty6sITyDVVBSE/ZqKulrtMG0NkLBGR68IFIKqK7yX3hZY0s33e9Em+ts14gZWURWvKd1rSgz4j4mocP363sDJN4i0Dh83twRkJetvC11pJtxFtwsDAjCIDwGoE1zkFbEIfCL1fIm64WujgR7d+uahPdHBpNhRLcF0MJQdB6MjfUL+QB4huCVlha43PBESJV8bBusQstBzVLW8Q0HiAAwuuBEEJZQu1cu8rncsA3fc2wEIo8ba2zdCdQWRFU0Nlui+7LovQEqSEjQ30x68rc8Looxa41qOCwEQnxHYfi+qKKuWUZWKqIb51sNFoOajHjib0tXRgCDCBQBwFZizjI77Dm1kEz/jbFbcDBO2J53jjfra4gtfrWxvgFUnuH2qzq24PYtq9FlQQfkeDbGPNt1xYBGuYIFAdlcV2Z4kzTQQ2wx48ALLzxy7jzDnemcoJvbmd8YxmgtOS+K0uQtk0hdk+Cj7oSHs0p82IRUb19aEj9tKUSW735i1Ygv03Qirjts6+v8vnfVmVPU4q9iGHE1pSTHFAAArsQ2BHdnhLLm64BRUA/bATk3cGQpDgprTDLxTHabExTRgZViWugIWVemy1E0kdD6qfSL3NDJbbGGCnyO1GFaPj4YbnYQ+OB0CFsBMpc3Zcbq7oJ8RZuMWHL1/TqQXhNIxz4+HLZH6+owjUmwTddLXCBw9Lb5ZckZlhacVVhi81FL5ojBLLbHDOTPbSkftJIel/2qvL6qu8Q8xQE2KQK+Dt2aYhR2R3Olqy+Wvz+/d01VtYVARDerghG3v+5bCc9zXF6jlzYa9sryMre33mpVqajxr64TeDSkn4MuXabQF6jrb+kd3XxhQVYlcIWT7/wnaoh2YiavFSbxG9URGI1shUQXiOwYlBTCJT+XJsrOtWd9OnpHj+KBVj5j8Xe3u9E4g1JRWpZkVuVSaGre0JdaRDp8hkdJMqNwd666+8w5JahkN51jFXQ3JyknBANZsQ0I7z3zxi9vPcdVPOJ/sNNXwf80NU6AiC81iHHhMsIPH94pSJZokhZpf59wC//Xj+VlS5wix/ITY+Q2/+20p7n6spV14IajZP71K4//Ca30hb4KjcEH4ihJjcGlRECZLeRjjRrHCrp3bXLghCrZ9s7zSpwblC0sflIeUQka7gKLb3T6+tz846/fBsFzYll+f0rv4U4cNjUIsy1AQEQXqiFcQSerbKKiC3IbE5wa+dkNb5GTGAdAZBd65B3mjBG0tsJEHRujcCc1GFiQYrVvz8NfsFa3BpPdKyJAAhvTaDQrD4Cz5H7xfW4siTWLTZQfxK0DBcBFfz4JM66upW0qPwXLmZ+rHxGInvbtTR4HhfActyinKwfKGAVphCYkaRpbhnmwYSeHn511TVTC8W4YSIAwhum3Lxatab8q17tCYsxhICuohJ5YQu4MRiS0q5hZyTEe02HlXHNaloOtokpvUBgkZFDiLSrznmxHyzCKQIgvE7hD3dyebf/jgSdEbPyF4UFN1xRWly5qsT3eNnVagPLrkWRbZ5Ki3uDGrpeBUfn+8UC/EBglgchDmjMx4+3fiwJqwgJARDekKTleK1lTs0PRKSqaIHkOpZHQNPfE9M1H2c3Xddc6uAP6F9XJDv310d67/bPSPKIiH7vvCoM0BcEVAaOMcnBdz59UMVN8ACBSgRAeCsh6neD0l3hI0huv/Wg9e5zFwZxruM6siS7qKDWWhjaO+ojvcqvdyAV6R1qXyUGjB0BlVFHFUT6isC32EXdbX8gvN3wi7Z3XsKRxQdiPo92k9iYaQS+ksiuu7owqEWC7JoWVevx5yT4vS4rm0wPronkp9arQcd+I6B8fikveQ+Xh35rwsbdg/BCKVYQkOnBByKpapX7kKcV0gkTgXtiec7HjyooqfMj7w7OScovGssYd14TBlhDQEPxkMWI+WF7T46WSsYCbiDQFIEZEV+TeLjVceBuOjna+4kACK+fcrG+qpLoKh/LGgnPrS8PE4aDQEqCz3VdLZZk91s42+/zSuU1Dx8/60CgDExULg7vdIyHMXqLwFxZfEk8fgXx7a0OPG8chLfnOlAS3WsEAfVcEbRsnz/z8EHpkpZHTva/waVGC5T2BpFyxCePF7omlHfJJUlSOoWANl2g9nOc3OLLw4fv/dw+dq0QAOHtqR6U14afSNKGMrQ9BQXbbouAXquuyrG7l/yAbrYVh/N+UxLZqS6LWhk4q26fYO11LtrgFzAjlle63K2CR6NnGwDh7ZnA86tCTr4R56nF8ACBLghoSze2WATSjnURh1d9tWVweNYNpC/zSsBBL0YFtz3xhS7Xq6Cx6NHiQXh7JGxZ/GAof0j46fZI7oa2eksiO9dlxVNrRHCaIUm5HfaSh9lXXUsofXuVi4NKlYgHCHRBYE5E1zr1s8ti0Nc8AiC85jF2PgOsus5FENMCtGZgyIkubh1i0o/Xe5E0JpldaD0cIZND3Dpjc3e5tTd7r1M/bS4fc9VHAIS3PlZBtiyviJVVF2nGgpSgV4vWlld3sSu4MHglX5OL0Zqv9/mgNDi4RN5ek2LrzdjaXXB6g1xAGwXhDUhYTZcKF4amiKH9FgS0BqU9k910/1OeKxNPnxC4IZF91mlNK4LaxDURq7LneIBAWwTmxHzFxw8qHR6eCBEA4Y1QqLn1A2QiUsla3FZeFpgvdVXRWrPq4tbBoig9m2pGQrzXUW56eV955pmBVAcolCf2TOCBLeeGh9lVYGvGcmsgAMJbA6TQmiB/aWgS826998R8acLSgYOYd7J2uCB5baIgQB78SPIaldocijb0qTXnkw4djljWD8IbiyTLfYDsRiZQu9u5J+IbEg83Oq+c8xuHwvqmygPDl9yuTH2fbUYiTw810b1QmR5cl2XSUbRCN7h9GA/BbNFJGYQ3EpEi0j0SQTrbhvxOYnCtOy9lmUbqExFdOtsaJvYfASlHJB+v9B+06A0VgW1K/0B8/dcE31aotYiKb5vr23pAeCOQeEkqfsJ6FoEw7W6htOjSSDfRza266cGHvI69v3mfVeGMeW+uvpn+I5nn4PaV+BnLi1p8I0F87X5eopkNpDcSUYLwBi5IkN3ABehm+cZcF0r3hUPak9+8Lw3MdMXH2Y1ME3WdHnegUx6AmJ3Q3sEZSakCBv198qtkcaU7qK3QTRBffwXv9cpAer0WT73FgfDWw8nbVjJN/oFl11vx+LYww0RXkYn9j8GkGhP8l7Js5yRoL5lGbOm9J8FHz3sdJDOPrbzL74z2FGaLwUuZn+euNpL+9O1FxXq8RACk10ux1F8UCG99rLxriQA170Ti54LUVTbRDT1lI90+ks8EoihbrYLSDv0EYX1V8jsPHxXhyZ8yqE65BcX3sHzPx4/j572m+6OActbOifiShw/fTQkmz+og5CUx/W1qDowbDQIgvQGLEoQ3UOGB7AYqOKvLzgPRlH+u9gj4F6L42xHtDb54776wjrvg03VcZJoof+OPVkVkfrJbHmZny9MUhRrkv+an1jhD7ubAn43r8oAviVjh5aufs0ZQMVQrBCSN+SR736ovOjlFAITXKfztJo/0h7kdGOi1ioAFa25pET0kFp+I+dlKGpAoUh5mJ+vrjdC14Z5EdrjJqi/TRFl83wUks2KpksYk+cpEkOXLIU65uBycweobnHbYWzDy9NrDWuNMILwawbQxVH795nvQiQ0gMMcyAvdEcmzamlsQ3Wc/XZXmSUX8h/esXfEvb6Asx/0jvE1tWDHzxbbiIRG4cBjz713Rh5+/HRGsvlG8DgY28ZWHGdItGgDW1JAgvKaQNTBuBD9SBlDp7ZAFyWUaL/tnmkIjCqKrwGH6j4+znX7GkdygvHJlWNeNCLJTzPO0d+Lxqynf9NeHITqDy4Opr0yA4+44VAa4m+iXDMIbiIhLvzuVkSFMq1ogOHu+TKskNxqL7rJQa/xAlUVcJgEHMW11ZVi1XubV72II1LNKfIv3Qll+B+fEdIYsD55/Nc0ub05CnJpIoWd22f0cHYQ3ALkj124AQjK1RJU/VQXsCDGy+VF1btEtiiSo9Fn68uPWsO4uxFgSGnXADO/ZEJC3bRParbxKXwtLuouMB6pwxYgEfzXp4/vKUp6T3z2V3/jM0b7D09G4Vjwjkb21ccsQF2z2dwPCax/zxjMiI0NjyELuUFpxBxN6oonNH+7CcnWwCEZTkeqObhNeUoaVNxsjLcS3hnV3xQKaHlwTSVUWOaSnkV+hRjeplASr0tR5RhDpGru8VPFAZXVQhyZrTxH4uH9Cks6IWf0vcvxaQ9/hREwTPs5OHa4AU9dAAIS3BkgumyBIzSX61uZOlS8uPYmJTSvuCrn7eXBCLD/mV7ROn9X8uIulyLtEFQhQeX7bPQ2su6ukN6AqbJJ+8Ul21BQgeZfMOhGzsmLd+rzOSa9akIV0Zrvwzm8K9gaK+KqsIOofpDtrqqDBtOfPPHy4Dma5PVwoCK/HQi+vVZWPnSNLm8fghL20lIgnJHILrrEcuXUgkunBByKpIo0bE6U64zdsszPQqnwfFF7NSUND6+4z0S5y1k5bzdlw8x2b35MQJ20OTB0O1aqC29kuHZb+FLmYqQqAJgtY1JFfYVFXxFcq8qvPXafO5GhjHgEh3rZ5B80vDDMU51883iKAssHeiqbpwrwhuGrhS/65KoeuH5XRlO+nzE6q/OBaBZS1tO6+kN48QKkd0W6qKW3bd/yhbWzlzeWVk91KlwE5SaYe+baWAW6D73XW3lYcdfuBANdFKph28Of1WFQgvJ4Kx4vrQE+x8XpZRbCV+oFXlaGmri24y1jlFlLmjx4Wi1CWwqMmBKRR6rCW1t0V7IrSyX7m59Wyvyb5vVUFv8fLqsPJy4FB5W5OFDFubpk3+bIXfr6K+Dq9ZVl9Rw9OaE8ekZTqXYUPsEn5mxobldhMIdt5XBDezhDqHyDoCHH9cPg7YpFBQV2VTonFlJ4GiuBWWrxsbyh3W2B57m353x2FIHZhVV7Fq3LA24lUR+vuKultQgotSXmL/2yb2WtZeVuSa43BcW22VtVnSsQ3rt0dNi0yv9Ggg6PCDUIckuQjj6zlVbj29+8tv2n9BczOzkF47eDcaBa4MjSCy3zj5xRZrHKzzuiJZj5ZhTb/UCrfU/GBKC/964fbwmZJNcoqsD5EYbUejLaTAL2BJH7dvGwO8Gv7Quz05VXvwJM46+Kf6Bd2G1FyktasjbyKYLi9I5Lq3ZYnxHTYKfCwzSLQZxcCcG3wUD9AeD0TSgA/Cp4hpnk5ObmVE2KeKpcEoodp3atbzStpNVxuSfMi20KN5eckKjvqim/pk3xDxB/WZq1VgKHGSlea+BGIpZfsLjYo00SRvnWL+S2J7LyrnNQcnvnzbhe9pDEN5IiPH2+b6ofL9vn7v3CJgDXYpSjU3J0O864XH+P8ILweSbXMOfqvR0uKfSn3RDTJXRKE+t+wyO0zSVHXnoNEkT2VbcFna+6qPnUMtHpl7b3LXQ6WXBzMkMKcuDnNPtDMh7bJS/zqwK3RZSLHLZysFwvYZkRyZKt8cRNZ1W27FBinMrEgNVpd4HS0a1AERsd0GGM3AiC8HmmIvEt+eutn6RFOHZZSENw8oMxdztsO61+1NPobhFZji3pdDV7If+7KcU3Eb3RZJbdtxg3pNUfiC0KqDk/76tBAJAaqkIR2n/TOOZVraJeRJh4GubXZJ3IDt0GtdZ8pD7O3rXujo1YEQHi1wtl+MOlzFHj7bbnuGRXBfSZ1fuXObS5jTa4MzSfW36NDDtsWizFLdlssqHWXYFwbNu8wz+lL4uFWh5tHaxA1dQQB1gTktmE035IYXm3Uw4PweiDewqqS/BPUdbQHuG1Zwm0sFtzl/S2lFHNY8leT0CO75rNCeltmR9AkMe3DRJKJZk5Sjn1LbdZVWCDAXRF81X9OIvsrhsORdmQsDwjCaxnwTdMhUK2DEIrUYBMSPPY9c0LTXZb+ju+C883dvdGd1dSaYuRL+1op0touNjKyu4ChUS7lttjZ61f6+vpR0ELntlEcQwea8dzO6EDD1RggvK6QL+ctrbsqUA3lg+vI4jmLAo3p6XES46k5z5sr5RkxKWtuTE/jAhMhbb60jI01poeqLN0bEj7ray2/ff4VpOgKqjqASx7F4vKwDEcus739E5KsUqGdadT1rqj731/wXyZ84v3fuD8rBOF1LAtYd2sJoHRTyK242oNoaq3AcKOoXBa2YmUmUM2waBoNX5K4EREpy3yXJyWRncV4oFshUEVmjW9dgPK4b5QuD6sE+OCQ9ugkP6AjA0SFKsLK6/pdBeF1KIHyylr57sK6uyyHJSsuHz+OHYrI6NSRuixsw8xITlyjAuoweLdMBPEfDFZJbzLrgaUwWpeHVVnmJbhh/d327YCVt8NXtXtXEN7uGLYewU1ao9bLNdtR+eIOaBRDurBdQBUWwIN3kbos7Nh6v0icAqKFi0PULgzblMNK0J/Zr1ez0SN2eXht/ZXK7UFZf4fNQIq1Nay8LiULwusIffjuUpkyjMf09DCO/+p2/x0JOiPOS/327emVdXf1Rz/PwFLHxaEXLgzbSW8vrLyvt68qujGPY/T3ffUe7B2ckRQnRKwI8Ho1v/58E2HldSZrEF5H0PfUd/eeSI6JaRyzq8JCpeTdM8kNP5VYt/ek9yU2yzzbiviu/9DfE9M1H2dFsYeePt1cQKIArfD3HeTfxqDKGbdBv3gflOW3j+QXVt42OqOjDwivDhQbjtEz626/SK6qfjYYqDK/iuSGU+a3oQ43aq65hHCjuT1qXPpsK9K7uN5NSfB5rIGYTaBHWfUVtKIPdlu1/h6c0KDMSiPpzyZ6E2xbWHmdiA6E1wHs0Vsz8qAzGseYG3eTupQ/1h+jIbl5JTQ+pz06LKOv22ccYPqPjzMQ/yXFyfOa7tEhHz8o8ounREBD9bWUmEf0RDNieUNMf0cArspKMyYhvvPp/00j2M/OLZQFSc57kPKs97deLnQZhNcB6jJNVN7d2EhAYckV8qYfH+aDQxpIRQSVT+6RAzUyOWXKw+xkMUFJ6C/LvTb1vcOH3aSkIhq7pSGg/O4Mrpct5ZG6jPWT/Bbf2KbfHd/fDFRfcyAhEF7LoJe+fD8sT2tyulsVdNEHa9VSGrEYSe6yjqwQ3pXrxyJvqnLXqGf1hTuDyXcvqrEbujWU1tzNAa89yIDTL/L74vOr3MXieCKtoOizcEB4LUtH3iU/SdKz9czy9Hqme04hlo2iz67w4pOrZBabJXebPkx5mL3dpSxFxaXknASp68fNV8eSfvFJ1hfM9LxbPR9Fpslkawor5WpDdENP1QVodo4TH8a9Ib/Fd0dle5DK6BB6qrMZD7O/4lNHf3cEwmtRNg0tGBZXVmOqF7/cm9iDbEo/sl4HnvEwq/1t2Op3BwtGjRcLTVZuEJR/80D+XPpvrVylZJr8r6cFfXpEfpVbmTpwy/NgC5cIPuXTB3XIw2MBgdo/ahbWEv0UMk1U6iEV3BTSk18dxu6yAJK7ppIi+6ON9b4otrB3RCTmfUg9F9KLHMpan3XoiWZtyYBMExnKfg2usz/kN3d5yHOc13O1Mgh6s6GRoqwZXt1ag/B2w69R74CsDq2sKo3A8KAxSO4OIcDy4IGGYgltEAj6Jq3Nhuv1KchvEW+R1usSXquOAbZuNtzSuOBmsWHPCsJrSX5BBKs9+8jF65ubF4NQtd6RJ3e35sMdwdKXAdPoRiCIb63uTTcbL/oiF8++viSvvXd3wLe2mfZ2aA3C2wG8Jl1lmow9vm65JZajWK+gUfGsiaY+t0U6sVawoZNrBCJNSWYK1oL88mASa3njPO/1QJwTsa8ZHiqDhE0Jv2/jgvBakHhZWU0FUXj2yO8kVvNXerbAVssp8D54l6fP4rziGZ7mCOAj3Bwz9PAAgZ5laNCLuCoYxDwmQWlswcmFu4O49rKcMSqv6dXjLaOB8FqAWRa5S79ZmKrOFPdEfEOCRjF90Ep/XJWmJvYcuXVkrKVNk0wNWibEIEBAAwIBxUpo2K3RIaZlMaHbmIoJlQaRSyKpiun4UdCC6YqPMxXUjscgAiC8BsFdDO2JO0NJdB9u2kTfW4Cp8RTy7mBYFkFQVtzYKtc1xkN7BxSN0A4pBjSPADI0GMG4DHqTEz5+vDUyg+VBPfPzxY2aBfmD8BoG2bk7Qx6IxtexpBWDP65hhV0eHpkaLIKNqXQgUPhrruTx1TEsxlhFILqgt/wW1nWAG9wajL9nILyGIXbmzhAR0c1/xFh8IGZlyX1jWGQY/hkB/szDh2sAAgRCQcDZ9zYUgPSvMyry65T4wq1Bv3aujQjCaxhi6zXdIyG6yJFrWDHrDX/LwwxBf/WwQisPEAi0uI8HyGlZQjTk1xHxTXmYqZSZeAwhAMJrCNjFsNYCKCIgumUU7QeivGIOfHIN62aN4fEBrgESmviDADI0eCOLOZG8ITH4HnJwdE58hbwkpr+tIIsiFEZhBuE1CK8Vf7I4iO7CZUERXTweIYBMDR4JA0upRACEtxIi+w1UqrNBnuc92GA3axZfFKEwqp8gvAbhNXy9dk9M16GmMimD+VQicJUaBtZcg3rYYeh7Hmbwme4AILraRQCE1y7eDWdTmR5uSGTfQ80UZJ74yu88fIThp6Fi1W0OwlsXqRbtZJr8Q0RHLbru6hJ0erHcN5f5IwLQNGuFvuHuiUjl35wR0zjW6nv64MJIPiFQlBVWxWb4kJgOvS8r6xN4Ntci5Yhk7u4wsTmtrrnkXXJJklRAr+48vnMeZn/oWifGWUUAhNeQRhT+qPJfvcPzZxJh5tHN3Tv25CeSBKd8vUqxPNpXIp4T04yeSFlTKp9Qf3AqN4YGQGADAvmBm/aqby32crJc3jx5VKAgNqkyTeiJP4f4HTJWwAL5z41pOQivIWj1pscJtwQwiK4hBds0LAIeLIKNqfqCgLXA474AunmfU1UBlIcP30ODoSC++zdErFz0NDxIB6kBxI1DgPAaQlZTdbWUBF8HefpNDz6UpRt1u3QYklgEwyLgIQIhYgs+IaDXcOHTzrxdyywvlBQk8c1vdUdEpErcd3mQHacLejv6gvAaAraTVSDPvCAvQ/SflAXRVb5NCEQzpFs7hp3xMPvL/rSYEQjEiYChOIw4wdK7q5CJ7wmxvOmSygzZcfQq02I0EF4DuHbw380D0kKsbgWia0CR2gzJ8n2IB6U2W0UfIGASgbL4jQo8xuMOgXCJb5fANpR1N6JxILwGYG15DXZLgi9DS9INomtAgboNiepo3fBDbyCQI2C9SiZw34VAkMS3vX8v/HhNvA4gvAZQbZR/V7kvPPF5aH66Rfof/gLXBQMK1HVIwX+FdnDqumX0BwI6ESjzhP9P55gYSwsCgRLfg6ZuDjBcaFGX1UFAeA2A2sDv6yuJ7DqkJNzIumBAYfQP+ZWHmSrogQcIAIEWCJR5VtWBHo+fCExJ8FVwhqL04JpIfqoBKfLx1gCpaRMQ3qaI1Wgv00TubCbpF0lxzqf/N60xnBdNcr/kPfkNeXS9EEfVIvCxrEIIfwcCOxCQaaJyqCPw1nctCTCPbxnjU53NATd12rUPhFczpLkFdCB/bh82LN+c/OVk8YmYUe5Qs64YHQ4pyozCi8HjRaD6Gx7v3oPdmaQxydziW6vgjg/7rKzWhm+4djGB8GqGVG6/skhJiMtQrLqls/1HlRNRM0QYzgYCTBM+zk5tTIU5gEBMCCBYLWBp5iWLH69CcRPcbe2V33n4CEOTRnUE4dUIphpKpomqDb6cePqemK75OLvRPJWx4crMC2q91SU4ja0CA3dGAFdinSHEAP1CAMFqUch7TiRvePj4OZTdbLH2Iq+6ZgGC8GoGHfLOaAAAIABJREFUdM1/V1VKUxkYgrhmKa/yVKAGqqNp1gtHwyF4zRHwmDZMBBCsFqbctqx6RoIvQgls22jtRbl4rQoJwqsVzmcLLxHziI8flGO690/hpyu/ENOZ94vFApsggOC1Jmihbe8RQLBahCpQBLYp4huS4emamA7piU9CWXcImgPCG4KUDK5Rpvuf4KdrEGDXQ6PymmsJYP5AEEBltUAE1X6ZNySyz6H497bfJnpuQwCEt6e6UbovfEPqndgVIKysILFLA/vzF4GWFTL93RBWtgmBGbG8Qvn1fioHCG/P5J4HZXDyDe4Lnghe0phPsveL1eQHkeVnQKv/f+WP4pCId+UKnYZW2MQTqWAZPUSgCFg7uCSSO945mhPx9vzpLKb0NJgv4Fv2H0X2B4+UKsA0Zh6hF+xSQHiDFV3zhcs0+UhEKs0Ysi80h89cD7gdmMMWIwMBDxBAbl8PhPB6CcFlc/ASxYAWBcIbkLDaLhVV0toiZ63fnIQ4DSVHszVUMBEQiACB0jdYFSOCocFPeU5JiAt8f/0Ujs5VgfDqRNPDsWDV9VAom5cE0huMqLBQIFAPgTLV1D8gu/XwcttKXoeUu9ctVmHODsIbptwqVw2rbiVEPjYA6fVRKlgTEGiBACy7LUBz3wXWXvcyMLYCEF5j0LobGFZdd9hrmHlOzFeh5HDWsF8MAQSiQ6D02f0By26oooW1N1TJ7Vo3CG9EUs2jjPeSHyR3RfZHtOGYt8J8AdIbs4Cxt1gRQHqzSCQbWMGKSFA3ug0QXqPw2hscFgV7WFubScoRnzxeWJsPEwEBINAJAZDdTvD52HlOLC+Qt9dH0TRfEwhvc8y864Fqad6JpM6C7ono98qGIL2VEKEBEPABAZkmX4jossZa1Luvnur3v8ZgaGIFgRseZldWZsIkxhAA4TUGrfmBywhg5Sd2ZH42zKABgXtiuubj7KZRXk6QXg3QYwggYA4BOdn/RszntWYo827n1mCS1yTpz1r90Mg1Aghocy2BjvOD8HYE0FV3ebd/RpJVaWDkdnQlhPrz3hPxDYmHm0Ud91J+6rBS7wHprYcTWgEBywg0dmNY8s9fqu6mLMOw+FqWXYvpEFTcAjRfuoDw+iKJBuuAC0MDsNw2fUV0F8tpVWYUgWxupYnZgcAaAo3JbtH/lofZ2fJQIL6BqRYMEIEJrFguCG9AYss/ipx8I6aVj2VAW+jLUrcS3RfCm/yvlXVe8CmfPkz6AiT2CQR8RaBLnl0eZht/e0F8fZX2hnXlWRyy94tbu4BW3tulgvAGInr46wYgKKb/iOiGnrLRro9gKct/2+2IP/Pw4bpdX/QCAkBAFwLyLrkkSSpQrflTcXAtUkwenMHHtzm0lnvMSIj3KEtsGfWW04HwtgTOZjekHLOJdou5JP2iAd/UzZvbKGDtZTm3JPgG1t0W8kEXIGAIgeJdFudE/KHRFGXgWp0+pb+/8vEd1mmPNtYRgF+vdcjbTQjC2w43a71a+ohZW1+/J5LfSQxGTUloA8J7S8xjenoY49qs35qG3fuNwLNFVkrlbnZSHYDW/KamcKHgSyJWcyDAzTuVQHU270SytiAQXo8l1CCvo8e7iGxpym1B8mg540LTHe4gvPdEckxMY3p6nIDkNkUW7YGAHwgUVlkVa7GFnDJdqfSEbVZbVtRUKdCUSwVSmrUB0VQfBLOZQlbLuCC8WmDUP0ijvI76p8eIrxG4JZYjHRV3Xvvwyu+K5OoYG4IDAkDALwSWyO+L24MQb3X4fbZ2qfALorhWI2lMMruAwcI/sYLweiaT8vT+g2R+LYbHJQLP1lxSbgsznUvJryf3+DBkS24RUb7/kcQgberWoRNLjBU/AmX2gndE8g0Ps68h7rj4tu+f0NNgrvt9ec7uwPIcVl8vtGNKIjsF6fVCFs+LAOH1SB7FRyv5icppzoWSEvOobhCa89U6WEDplqEKnxyW08+I+JrEwy0+8g4EEumUxW2I+ECkfFfLIjt5Oii+0H0IjQVCBLl5I0mQXm9EUSwEhNcTgYDsOhdE4T8r5I2Oq0bnuzG0gFJPP+X+g5ufOZG8ITH4DkJiSAg9GDY/ULH4sKNc75yIrkO19toQYXlYuEaQmw20t84B0usU/tXJQXg9EAbIrkMh1Myd63CF3ky9waq7e21SjkgOPoP4eiNC7xeS69ie/FTbpQvW3kqZIqdvJUSmG4D0mka45vggvDWBMtUMZNcUspXjagtCq5wp8AY1rLq7djgnlhcIyAtcCSwsX6YH10RS3R40fWDtrYkYgtxqAqW/GUivfkwbjwjC2xgyfR1AdvVhWXOkeyIalQUctAah1Zw/uGaNrbqbdriWZF8F7MFtJDhV0Lrg/NtHvx0u64FM90eNCzgsrwrW3toyKtwd6JwQ5FYbMw0NQXo1gNhlCBDeLuh16Auy2wG85l0RhNYQs1w/OflGrHKJdnnkdx4+qpyhtFIeu0GlqS6zo6+fCCyR2xsS2WcV6Fjq3ISY/u6w6tyHnIePnzuM0auuCHKzKm6QXqtwr04GwusIfJkm/yAbg1HwEYTWEl6ZJh9VQNBzVHzLcYheqkm9Lo/9QoRbD4+OwSIg0+R/S/r1TAJKQ8BYQxndKQm+0p3+K1jAayy8PJCqYFR1QEUltxqYtWwC0tsSuK7dQHi7ItiiP4pKtACtbpc8CI2vUY63LmAv7YrcwIMvtQOGtk9xT4LPFmRjS3nsKQ+zt81XiR6hI/C68Eq+ozkJcbpwcejgz7sOz7MFOXTcbK3/OchNyMuO1nZbSw5xHnz/HEgNhNcy6CC7pgCX30kMVIGIiakZlsfNySEPPhHTjIfZlY05Tc3xXEBCHRS6P7cksvNFLl6Z7n/KDyCbnjyLw+MV8vZ2Bz2UEVbcWl4vek6C3z8flIp3bKSBdM1VHl8ePnwPBaeNr4t6l5hP6IlV5hN737mByoHML1XiQgbRp7WjDLF1aYDwWoRc3iWq9vkXi1PGPZXBSmjbgNucseDl6j40wEv/PaWTiwIS7bfAdMXH2c1igJqHuzlJOSYeTEg8/UIwW3v4fe0p7w6GJOVRfnNQxyec+WJR9KU8jN1oIVx5UJu4ClHHyvf0x7OMLR8WywqgytVB/Yb96auuBbcukF6rIgPhtQT3lmtdS7NHN01KLG9sp7raQQ7nJLK/QrJUanRfKJRrKQhNQ3nsKUk5JeYpCZGGSFCie+Nqbqggt+KEJB8R01H7g5S8Xg4865zBYXX9wbk5yDT5dwOWTizX5XdQkd93NdUCzXYhsHTAA1BmEQDhNYtvPnpOLgYDFaSGpz0CZRDa4Np2IYP8GnZPftvp2xpI1oGOOXW3So+HWf4tKXVdWaK6W4xfZiuswAMa8/HjbXsVQk/dCBT6dPCOpDyrZb1tsgBJY5LZRZHB4eCEBlKVXdf1BJO7t/L3o0jHZs3NYSEABLnpUsVVg4HGUTHUGgIgvIZVovxYqQ/1G8NTxTm8w0poDX1bv/Iw21Zu1wvZ6Mu+sGE7ipyQnO8oBasLg7J08ePXkCzqujbvyzg52WGhfErzlHMGH0VMR0R0YiirjffZHGoH8DmqbIggNy3avxK0qWVEDPIKARBeg0qBXLudwE1JsLLmWgnOWF7pEtFVBLbuQcXbqNvSOqb8dNUVcywP8q06kGSRK3f/iwWia3d3jshinU3KNFFp2hq4D8hrEm4OhOW3Rn03G6y3Dgq9aBOca1xoUgHhNSgxOUl+aL/mM7heD4Z25raw2HsnK6jI/vDJ6hgtOVlVVOXnewE/X/Nvb+m7+a3BIdD8ovTO4OUhai1ncd0dO70JgbtDXTG9auet4aT1jjzqCMJrSBi1r6EMzR/UsM/ZFh5uXBFGmR58IJIqfVZ731OPgg86EfeglCdfLK4DDcusZ0G33rg5vMrO0FzOjokvvaG9BNkdmsgNmRuaoNWoLQhvI7jqNdbwkao3UeitJP2iAd8sUhC52I4WovuycOen81oBdi6ANj+nc+zNb9HNDJVBU26WZWNW59kcNGancEp8lbBQwriBynpkPGmwau+bgvBqFhGC1GoB6sw/d7E6zUT3ZdNCvHV5vd7y+rOW0PxvFG4+ZJ+xlXfJTw3V93ze4o61uSuBXcaAqBLMOh/nbhvw860pTse/JTVXGVQzEF6N4kKQWhWYqhqavHFLCDW4LuzcprsfyNyKMkmmGipTVQnS17/PeZj94eviQlyXgXRggcHg7hBl2C1upioguqw+V/j5imstRUUC06qay52RyN66cvOrucagmoHwahRXzcpSGmcMZai87K/1/LnL6JQ/3Crgpr2Pbj24nUbaljcMKrPF77WWq9xKVB5PVeSB5BuSpPyY6/WtNYHlRrgK1Aq4xit1retqMFhKzCOS6r0Xh0R81kC/Ux5mKh2ak8fSbY0nxJfOiaTK7hDut8eElkga80n23sTQfRwThFeT1HsW1FEHNecZF3KLp0pYvyc/2b2SdWcVKvasigEkKnfp5tRAO0oyR6DHtzzMFKnBowEBS6RLw0q3DCH4r/VCNcWhkC93k1/H7/DdwTlJqQ7otp4ZsbyyXb1y1SiRFzG5BPFdE/layXZbChHjPCC8GqQKv90VEO+J+IaEu4wL7ojuMw5OrbyLVZRWbWWxHRb/Lbe0j3blNjbkN6jhLas9BNwaakO1u2EEwWqVFtrygKeyCKh3xItDev6mbi4lrEmyO4ZxVLUNxLdCtPDn1aL7ILwaYJRposoGx5TUvw0qvhDd6jLAbXbXuI9bC9HqD8jBIdHDvK4vmEwT5RJRkuTGG3ffAT8OWmRg2IdUyxp3D1L/Hcz9SRu8IyYX78UtC4ivSRG3GRv+vG1QW+sDwtsRRJkmN0T0seMwgXfnzx5YdG2VOq0rKy+svHUXu0KQ04NrIvmpTV8v+sCPV4sYmlf40jKtvkEEn7qo1Nh1A86su5sWDuLbVZz6+sOftzOWILwdIEQEsxfBaL4R3SWNqm9h6qCG2ruGn0c6TNy1C7LjgKHfXPEwC+73zQvr7ia98aD0clny/abXWR1wmO/0VQvug9Bptxo7l76O/0ZcZnMXWrck+HI9GEQjvJVD5VeQLD4Rs/K/8/UJ0sobgR9vpe+mrwrj07pkmkif1tNoLZJ+8UkWnJuZV9Zdb4lvr9OZzUnwW5e/vY3eQ88ag/C2FIicJD+IqW/R4O4LRuQZCPY/Eqkoa3rTUnw2u33lYabWGtQTuKvOjIfZX0EB7tliixypUh3ow3xYvneZcaANaEH5THth8c11VGWjCTfeoI2iEKGqZDvcCIS3BXDyLrkkSV9adA2zi0pjRfLS5Q9IeZ0VEtF9kfWG1Ei+K0KONyeTUItYhHid7ZNOBO2uFeC1b8A3hu7LL6vUkyxvQv1WtXvv4bbVBjcQ3oaolZYPlZUhBOtiw929an5PTNd8nKnAPGePTPc/BWTRfY0T04SPs1NnAHaYOFhLr8j+qJuVogM80Xb11pd0N+L3xHzJxw/K6hfUE3iBj7xcMYnHry7fuVJn1W9VP4pXIBtN43cchLchZP2pK+9B5oXUdBnghsLv0jzQiHG15dzaF5oFJWC8u6iZrr5BXa/nm1YBtI+XLglXW+wjyHe82HpOfHn4+LktFl37FZby3hSvgGtDQ4UB4W0AWE9cGdwHpN3tn5Fk5TJiugxwA+l3bhp8HsXcgkLymiT92RkN0wOA8HZCOCDLvvO4gk5AK6p+l/y0Wwmy64or+3tSrlhcx5/RAa4Nldq41ACEtyZa0bsyKD/dJz53mbfSTRngmgqgp1mQAWzrWw+D+OKHoIvKBlB8RB3Mb1x+r7rgu+gbuRFlSoKvXMooyNuppooF14baiIHw1oQqwlP4YufO/XQDSTFWU1MqmkVkeXxdulgPRHpGAeHtgqOnhNeb0r9dsH0mu0UmjPjjQYriFRcuU2lF7t8L14aaLyQIbw2gwk/Ev22Tbv3eljIvXNcQQyxNgndteGXxLX64L/M0ff64O9zyMOtb2kBt74hXOXgl/aIB39DTwzhEH92tX9/4XBl261+eyuzxypUMl/x7w60iuQ1hpivXweXaPj4GBwLhrQA34HQx23emfkBkXjhiYlC3dg4ti4A0FVHbh2wXq1hIOeKTxwtX2JucNw/A2Ruc5D6JTEcOCTCKT7QUtPPCI+r7xHJKPJjQE01cWgZbQljZLbygwMot1W3gQWDbb0c0GKjfnpjy96IgRQ0NBOGtIrxpol6MjzWwDKGJD+4LJzSQKiAtuCpIWgXcoxN57rKyHIC4J96QHGyQvzgkyUe68mkiF287jdWcgzcloikRz1+tRtDagfth6sr61w6pdr0CTfnWbrPbe81I5G4O7owuKghX5kaXONKYSRrzSfZet6BiGg+Ed4c0NX/4HeuNa/eFIEoB25VRRP68OoHTFsgTYMEPnTi2HUsbIUMwzSsRlCnIfvbyZmuTQjr27y1vM5RLXRxGrQArDLb9TrXpB8K7i/CmiQooCNsS6UP2hdALR7R5s+r1mZMQp3z6f9N6zfvRStuVOj7+rRRGU0oyuJSsoR+le1wrDdvUSV67LFyRH0R4MNJ1u6QNluYDoaz6DsxAeLeAo83K0VxhNfZwG6leWsi/RZZPV6N88qGmJLLTPlzlNgFOT9CUW/1vsl+f2ko9B30Q3iWhlmRXWXbDNqCYVVT3+XvvkkuSpCy+Abs54Lu3TU1BeLcR3jT5N2CilpIQl64sh0WaMfklj9rHUwMB+Z2Hj+c1GvamiR7CS1HkPbYtdJkmyt+26w8+CO8y4S2IlIpdwFOFgHM3hzzrjCpPHWpQ25xE9heMKK8VDYR3w8sXcASt+6A0uC9Ufc43/R3kYA0VDYT3noQ4cXXoa6MEvvTR5EMNnV4mvGmigrNCJVCOVNOxm0NR8VMR366HPwf4wcq7CXQQ3vUf2rwWd27dDS1dliqxqSqlzRy8XVS6LyD7QjvwQQ5Wrn9zC4t6Bzs8sJp3AE+Vu511TCkHnQbh7aKCi74zYnnFx49jHYM1HaN0RVGk913Tvs7bI2j3lQhAeF9Zlg6uiWRIiamdWnXzDwLvfyFmXMm3/8KBHKwSXpW6Tvk7dnhg4egAHumotIa0cC8S0BQI2EWkYfeVNCaZlyl2Y9AJ0tqLQ/+60oPwrvzQBmfddWvV7XPxCK0/HyBny3BqSQfIfMHHD8oyg6cFAiC8LUDb0SVgNzm9QHQbzWnRiiCtvbDyrmgcCO8y4U2Dse46tuoeHNKe/JZX08LTHQGQsxUMtZAD5DjupJcyTdQVcrdrXOThfZaBlkNcJ4lG1XlKQly48s+XQVl7YeVd1nwQ3hKNYHIkFmWBz5xd7SAoTf8vB07ha4RXB9niU5dVnPQrid0RtRw6cJBb12tpV4qxz+YuqK3kC+pQ6H8gIn5fnl8EEN4F4Q3Cuuvu6rusEKRy6iKPpM7fEUm/+CQDpis3LRpSAsLC20lLtRBegnVpWQharOadpBplZ6clijVlNDEsGHe8wfDGGg8PwvtMeJP/eZuZwWG1tOIku/+RiFUybjy6EWC64uNM1XPHQ0TlwUpVOFx91DtAfK38cmsRB1ynd9KnWj/kzBf09DCmwcElkbzckL4JVZ+WD3J3B+ckpTIa4NGPwA2J7LOL3LMBVGlDXt5S30B41Y+s3x+iWxLZubMXeTCAVVf/x/llRFw3raBb+sf9eP6PS0R38d/qWB+RIaCb0tbyOV3S3eJg/Jr4Qg4vctBWMrubaGPu7czaW8pWGYU++gkwrLxKLiC8ivD6WVXtnpgvXUWay8JXF1Zds18vpCNbw/eF8MrvJAajTX64dcgYiFY3xe2CcWlAUGkKh5DDqhxkuj8i4g/dpIPeFQi4s/b6G9A252H2R981p/eEt86H3bqS5IFp4txFFCp8dS1KG0E9rcCu8c7iINEK2WbWSJDZ5iDX0N3mg6LHJgQcWnsPDonlmJj+9ko0+L2BhbeWP6BdrXXnwgCrrj1JM/3Hx9mhvQnjmakGaQDh1SDuqvLOILztQNaR47jdzL3sdcPD7Mr2zsvYlxuvrPlMEz7OTm1j4dN8vbbwyp86SphqFKejAKYSB+U3iWwBGsW5cyhHsra1PZPzVBNe+KvpwF9OkukuKxUIbzuUPY8Zabcpv3s5y9tbyloFJf/uBUQ9jxnpN+H1JxXZPQlx4sSFIU2Uk73y1X3jxQvZh0XkWTeyIxeBiDHAW0l4cZjQIuYqSyQIb3uY5V0yI0l/th8BPZsjIK95+Pi5eb9uPfzK4tDvVIE9J7wa8n12exeIcn/d7MQ2+cmvXDj5RkxnXbeA/g0RgC9VQ8BWm1emzEIO3k74LjpXZcMA4W0P86tsJO2HQs9mCExJ8HvbhZs8KlTR6xRlvSW8fnxwVCT646V1sltEkqp0Y7DqNvtYdm8N393OGFYRMRLZH7bfqc6b8nCAyqt3HCw6Sa3Kgt5pcHTehcBc3WryMPtqGyYvsnT02ODSY8Kb/CRJJ7YV/nk+B9euhVV3/wsxq5RBeFwgAJLQGfUKwnvPwwwHuc4oqyIgByc0kD+3DgVd7oTy1iIrnUZF59oISBqTzC5sH44rD5K1N9C6YW8LwvSS8DoOVrsnlud8/KjqcFt7yo+rCkxDZgBrqL+a6JaHGVxIOuJfQXiRoaEjvsvdd2ZqAOHtjLRMExXQ5Gmxgs7bC2GAObG8cPR7PHEWzNbTd7efhNdd8m8nwWkoIuHFd/eeRHZo25rgxc41L2I34UWGBp1w7wyu6umPplZ8i1iKiXc5W3VuMoyxrKcvy41Qe4Oxm+DFfgav9Y7wls7j/1r3X80j88WZzUwMuSV7T35z6roRxsfO/CpBDrRhvNMqxvK9bWuNto15ONDOPOXQaS0SK2/f3Fn7tOwiikGspy8rg8fdHHh6mKKsf4T3LrkkSV+svp4OMjGUQXkITLMq6C2T9ThIwAT8O4N9evgRN4HxYsydGTEcxCGY3KvLsT3w63S5fZ/mth7Q5o709u82rH+EN03+sVpgwTLZLS3Yn4jo0qevSH/X0s+rI5Py3kF4EbCmGfjdgWv9+8HUDO/KcJXZR0xOjrFXEbAc0OYobVnvgtd6RXgdRMWmJLIzW36b5f6UVRcV03z4gEv6xScZZKFZFnL7oRVBgZqxVsNtD1wD4dUNtxdpq3RvKtzxZiTEe6tuiLbji3rmltQvwms1ItauZQ8uDJ59VS1b9j3bvdHlbCVguGI3gvsOizoyYhhAfKfftIH5MGQFApZd0uweeuzyFNe61jfCq4LVLKTlsqtEyMLg+jVamx9k16hAthJeId7atMYY3aRHg++4agfhNSAndz6dBjYTy5BSjvjk8cLWdiymq5vzMPvD1r5cz9MbwmvRneErDzMr/rMoD+z69dkwP8iuUaHs8CmF/64h5Hd9O1Fe2AzoIL1mcO046pREdmrNRfHu4JykVC6KZp8eZbbpD+G14s5gz7KLQhJmvwGtRgfZbQVbk07bo9ntvXtN1htLW5kmKnr991f7QRlnYyIG6TUGbZeB5yTEqa2bJDvZO/rz7ewT4TXszmBPaeCv2+V7ZagvyK4hYFeH3Xq93iMrhRWg1ybZ6lfYs6AXr7B3sRjMWSBg0a93Z2pAPfLojVtDLwiveXcGm2TX0jWHnhepJ6PI7yQeL21ddfUE1I3b3BpABUujUbUoD9mqNPnqg0BBo7gvBrcbyGRlS+FPYpP0ms7e0BODQT8Ir9FiEyC74X+5uuzAnvy7rDKWvjJN/rehSiLSkVkQ8Ga3Bui/BejzKSwGMtnaUgzzWCtJbPjQYy32yKXQ+0F4jRWbsPexRyYGl6/Jlrlh3bIqlLxU9kAq16Q1KyNf8PHDyOpiejjZlh/cKQ+ztz2Ew8mW7fh0OtlauJNazOBgkPT2oghF9IS3rGCirEJ6H4s+m3Ky/42Yz/VuAKN1QOCemC9Bsjog2KLr1mt1uDO0QLN5F+DfHDMTPUoXvcnGIEITE2LMagRiIL09SOsYP+E1kdoDZLf6AxBvi3sS4sRWlG68MDbf2eYrXXu3LM1XHF+PjW4NCFyzLuj8toPlmJj+tj45JtyMgMVyxDuKwbSXTg9uLOMnvGkyJqJ37bVgrSfIrjYogxvIouyDw8bCgjeWFO5JsIUFeGtNsflKFSWGa4GnuVF5e6lcefT9vmleY++Gs2TpNZSyLvpCMn0gvJuCXNq9hxYJD9wY2onIXC9kYjCHbfXIW1yTUGyiGjqtLbZkvIEfr1aUmw2GYLZmeBlvHTLpjdw9LGrCu6MqUxudt3aVbSHvXpv997ePxfQz/QV59843+4/CncGFvsi7ZEaS/lyZO/IfShc4N5mzDGa7gV9vE9QMtrVJegfJTJvcI78xi5vw6qyuZsmhG1G4Bj9CzYe2dshpvrR+9dh4lQ7fUSdKsLH4R+Q/lE6Abjhpbn3nwQh+vQ2BM9bcjquP3iDGuI0IsRPef4joqLM+W7Lwgex2lpS+ASy6r+hbdLwjyTRZrZTI9B8fZ4fx7tjfnW1JD9eLPJ7+SqVYGfx6PZOQNe6wf0aSXxeGaQ5H1FXXoiW8W3N2NlYAW6e0gxMayJ+Nl4cOBhCI+5RrADCjQ4JgGYW31eBykkzXLIm9yOPZCiwHnbaW4Hawlt5PaY30aqrCauk224VexEt4taQjs0N8yisJRXbfuFACzLmEgKWPEzCvj8BGn3bBf/Hpg/Jdw+MAgY23UZCJA0lsn7L0e1dZHH73amF9XIyl3xU9AYx2jHwu1CBewts1HZmkX3ySdXeHqJBqab1Srhcguy7egMWcTP/RkzhDfl2XQtg896uck5beTf+Q8GdFG7Nm9CCPpz8SqLcS+PXWw8lCqzkJcWrj90VDNbZo05PFTHjbpyOz5L9Z/mgoy65xYm3hhQ55ipREdsanNA95EzGufTOxQilhH2S94Yc12h9KH/Buuwb49bZFTnu/GYnsrenfGS05eiPNuhIl4e2YjuzzmmHtAAAgAElEQVSeBB/ZuC6Vk+QHMZ1pf60wYBMEjAbb5NeKxB+J5Fc+flRFUPA0QGBjOrJIP8YNYPGiKWSjRwwv3wj+brJcOfx69cir4yhWclbnpHcvmb5KH1h38ZFmXYmT8KYH10TyU13ZrrSz5LCNj08r6ejsdE/Ml0Z/YNb9yHHl21h+r62IdvzqGy+0px1e5eS15KsYC9yvDg2G87eWxiB18IZfryslMizjxbY6piszaghyBX2khLdlOWFLH2ukH3Ol7uW8Fvx1Zbr/iYiv13YadcoXE1KVabLqmoTcuyZgbj3m6yAZHEiagPkq3Z7qbJgQ5XEjLMfI19tEUprbWuMardOVRemeFCvhbeG/a+dDjYwMmj8czYcz7q+7syx0pFdFzcVQ3eOVaxJy71aDZrnFhpRxONTVlMGWMs1FbylHJB+vTPl7Fn69+zdE/KHmctFMNwKWDu9tb5N5mEXHD6PbUKv8u5aivsvgAZWRAQnzdX88ao1nNt1K6Tf1gySdbF+OnYNVLTg8b/TaemhWfp7D4e3yXuXkxaGulqxqlJCfkshOTZHenFffJZck6UutBaORbgTmJPitlXihNlmrLBFy3aDuGi9GwtusgEN+vZ0dmfyoLAQg00RP5TebGhLHXPfE8txk0FhprflWI+MGEvTX1KlX173I81oTObvNXrto4VBXRwI1fw+Mp7Pq6OtZZ6tosx0B44ea/GCjLPqcTBq5sVhyu7CpHPER3mYn1nsS4sRObrwOgXQ2NSK2ufIUc+LcpIzLwBNFduvlUrYUGBmyKDdc997yMENGEw+FuiF1HA51FXJqeBM5J+YrowG2bQiRh7oY5JIM+2w/G9x+/nZEg8GkfsBifDdq8RHeNLkhoo+1FN/SCaZjmrRaW0GjjQjcksjOTVrvtwSnVYkjygjYqk03+fsrdwZL72qTNaLtCwKvsmngULdTPVq5ElggRhqKFuC1aIOAJTeghlwkOiNDjIRXnWCGNXTOCumA324NSRhpYvZ0Wl4RfWuZRxmBPVUWsFX3n3seZvWs50Z0CYNWIbAhJ6+V72vVunz9+8bsDPUWa/wKHFmE6glCc6s5iewvk8aZZ0tv/Vvw6DI1xEh4/60RFGZNkDsj9jW/MRguR0AVDjnj0wd18DHylNeRP2r4626f39KJ3ggAhgfdcN0L8mQYcx3Dr+XkhVvDFlB3ZmeoJ4gZCfHeqJtW4+vvegtHqx0IME34ODu1gVFdS35smRpiJLxyp8LYDFJTVbYkK2KExwYCub9uTnZnpqYrr4SUTLtaHKO7LtKF+avrXgSr6YLW6Div0h/BrWEj3nXJRoWw7Pj1DvKc9nVuTI3qVm8Gt1ScqHYQW2Tf3qgIby3/FEsf4dJKpbIydCVGvXnXu21UfifxeGnySkimifINVz7iep7IPiZ6QCFai163dhuja/19Hee1Zd6sW1GIOJcubuoWUtPvgrzm4eNnk1i8Tg9ocjaMTdY4So0gtshSk8VFeKt8UyydntQrK++Sn7vzseLF1oaABbmacU0BIVjXgVekCcFq2l4TGwPJ1XyfUx5mb23MG8ocRvxjJY1JZhdGD/tFmXR12EdJYvPKZu29qdbHuH6j4iK86f5oR+UYa5aiVhG45l+iGGew4K+rKhIlPzv5625HHn6Oa9isvTsIVgvsrX0VvIZbjBUJGjSETEnwe7PuXL8d0d5gTJL+DEwtQ1yutbiFtUPqOlZRud5FRniTbQFrihgdmfwYLLQErgyWvi1W/HXzKx9FdjVdP27AJrIro67SX3VniMu60BWbUPqvBK9ZuH0JBpefB4c0kOo3ytSjKncp0mswYDc3AMCv15QEl8e15tqQy1TFvWyy3keVUSgawrsh+fmL6liMiJeT5EfLVFU2XqFI5jBfyam86lElN82R3UIaUZ2guyjYq3cY1sEucDrru2alt3Y962zDNSfWFKxWPZsFN6BXAYrVq0KLpgjYzNrw82B7hVpLxLspPG3ax0N4t2dEsOfKsEtp2kgHfV4jYOVjvv+JiK+twQ9il0O95k+Gg4A1BdQ7UXlwebEYQb+L0q6D/AbS9AG6EKaNIhXFb+4Ifr1635+V0Sz83i3m23ogs7gGg0jmQ8dDeNONpXutuTLk35h0q0uFaTn2YXzjZaCLVC37X4j53C6g5i3WdvfTbrYVXzKLtzLtVoteuxBY+fGEWwM5sYgyTegpe280mE3l6+XBiJj+xhthBAF7BSmKQ9km1wZr/sRGEFwaNCLCuyFgzeKH1skHzbR2+DN+SiI7M/vhzv3ruhWT6IJXz61gK+4MTP/xcXbYBU70dYvAWrYNa7dsbne9eXbr1t3VZVgoUpETJWXpfecj/hGsyRrh3FAxUcEXzfsbEeFNVksKS/rFJ9mRDWVHoJpRlI2/7GXlI7PBaZUQ9dvKu+LOYPGgWikWNGiNgEyXvski+8PkgbX1Ii109MAYMieWF3z8qILNjD0e7NPY3pwPbNGPduW9LTYejR9+vITXYvQ7AtWMfA7uifmSjx+U5cDYU52H0NjUrwfusZV3yZ3hnkR22FdyZFHbjE+1UggoIj/AJsA5tu6uL/WSh9nXJutv2raUuSLWyNfbFLxd7e0GsL3KJhJLieFICa89a1mt6m46Fb8PY+Xln8WZyVrxCkaZJioLw6VHkBq3Znu015WlyDT5XxHQY+/d9RWLmNa1lKKsl0GI3uVkl3JE8vHK5IEyv/FkOYZfr+Y32eKhcd1aD8KrWZZdh1u9PuO/bOTcLUnTtty/XbfU1/4W/HXpDe0lPzyshGctQMEn5VrxG+uxldsnmehay8oNSg/dGjwNZJ6SyE7Nkl7l17t/s6MQlC4V69M41n4fVmIqLLqHmhZmRBbe56A1aw7WXl2Hm9YUO+Mbt3CW/rrfDFVO646SxVN898XqGWEpor+XVkA9KPo7yrOVt2e6vSUAyBdBzUmIU+O3aHfJJUlSN2l4dCBgMb4hxu9yPIQ3T6lxcEmCRrDu6nizLI9h4cew/AFSZNdOLsxWEPavutizO4NFv/tWokGnVggsXev36kATRBCXve8u8vW2entedbJWjr6w8ipO9XBj8jZADyz1RomG8Nbbrr5Wnp/e9W3U/EjG8+uqLcg0+UhEN+a303EGCz9AHVeotXtpcf8nptQ3WgGKYLClQhSSh9kfEWyp1hYC+o244WF2VWtTLRvl7zny9bZEb61bz34j9IBWjALC2xJNeZf89NAHtOVuHHWT9ItkdmL69Cgn+9/sF5NogWlEvlJ1d//sFgTrbl3Igmy3sHbGEvxSVwjWygnXXdC2dpLGJLMLk9/i8uCjMjgMuy635/2tWXljwxmEt4VEkZmhBWivusjvJB4vLXxgVX5dK/mYO6Fiifx3WqOBzsW7JM55+Gi5up2BzWDInQjISTK1lRvdJ1EEQ3qJpiTEhXG/3jRRN23qxg1PWwRg5W2FHAhvC9hg3W0B2nIXC473fhSTqIsTUnHVRQrtgECICMhwSN6cBL/n0wdVyMnYg4DvztDCytsCQhDehqAt+Rw27InmRHRPLM+NV/y5OzgnKVVksMfBaaU+4KSOFwMI9AKBkuQp62YIRRksFKn47YgGA0WsQ8DDPx1l+d70b6l/m+62IhDehvgFdD3VcGfGm1sKTtv/RMTXxnfTfQIreHRfJkYAAkBAFwK5wWRvMCZJf+oa09g4Uo745PHC2PgqmBjBbF3g7VXWky5ALfqC8DZA0bMykQ1W7rhp7p/KZybTxeWy4f0voQSn2QjWcyx1TA8EgMAGBIIK3mKa0FP23nisBScTVGZr8bqgUE8j0EB4G8AFv6MGYC2aWgjGKn9AwghOQ+ncFkqELkAgPgQC8uudln69M1NSKL7hqMzWHN/+5W1vjtFLDxDeBujJNFH5Qv2P+G+wJ7NNzQdjlT7VP4jo0OxeNIxuIVhPwyoxBBAAApYQCMiv105ltvS5YqolCQQ/DYLXGogQhLcmWPLnwSEN5L81m6MZkYUywSqllVRk1/fgtHsSuUuH0chnKB0QAALhIVAe2sMI3rIQZIub1IY6jOC12oCB8NaEKqDrp5o7MtgMH8UXcHOXDnFuOrelQWliaCAABAwjUMQghOLHKq95+PjZJCRllTqUI64Fsvmb1FrLCKARCG9NIck0UdZd/6/Na+7HUDM7acdCqZxGlJLIznQFfOQ/insHfyvZ8fFDakiGGBYIAIEKBIpsC3u/0xP9pzMYN5gsQLYyOCBtWZ13cd6nkt11ANnWBoS3BnrIvVsDJJVjV4gTk5bM0gryjZjOaq3IaSM9p+4imOPgHZG8XPMfn5LITnWRaadQYXIgEBACcpL8WPsGqWCuGxLZdx3vo7xLLkmSyiPu+2P8GxSUu4dLacGtoRb6ILw1YII7QyVIdsjuIAkjE4Mmlw6ZJqr8psopvM1H2bifdKXk0QAI9AgBmR5cE8lPW7Y8J5I3JB6/diW+AQWzzUiI92YNHQeHxHKMtGW7XjQ9BpbYX2UQ3hoSRnaGnSBZILt5RR5FdnsRnCZ/5sF4ysJTnREEeRhrvMFoAgS6I9AgD/uMBF90DVINyLppvBxxWD7O3XWtxQhwa6gBGghvBUjIzrADIBsFJe72z0jyN+/JLtN/9CTOulo6ZJoooqvcF2o+ONnXBArNgEAnBBrf9Ek5Ivl41cXam//+hGLd1HSztU1IIL0V6iv4tOshq9MLEkBnEN4qwhuOP5VddbNRUOLu4JykVGTX70cDFqU1R+212qq7jgY+dH7rB1YXPAIdDB+dr/zDInpmMziEhYV1tYeLWwXkILxVhDdNVH7EoXXV9XlCDQSvanvNLZ1VIxr6uwYsSn89Zdlt57LBNOHj7NTQDr0YNk9TRPyRnvgzrBheiIRy1xuWH2nAt3z8oFJIRftoyJ5wycPsaxeANKyhy/T1+xrO4ICqbFtFgSIUILz139NNLWWayG4jRNZbA8GrQkQGk3ZMfifxeNn2yrKwVux/IebzKkwq/x65lXclWEjDVXElnmiwE4HVA2nc5U07WHdXMZQ0JpldtP1eqMGCIb1ME3rK3nfZa9UrGAwWVRvR+XfEdOxEExbeHfCUwUMqWApP/rVVRRSyE1MfsTIoJIxMDNTNd7b8EVVV4pq7MGzSxsitvBui442nRMJL/xqBIhd08oMknbz8NXLCq7fcbXcXB73rManmxt9RkN418Rn2ozapLDbGBuHdRXh3p6CxIR9/5gDZXZJFV7JrKOtExFbesvKSOiAsP3MS4rRroKA/L5nfK9nuZx4v4dVm3V3XW5YXfPw4bivxivRobYc10a8zwa9aFEjvMkLdfpuqsA797yC8Owkv/HdzeIyTXUME0Mjb2e2DYrROfMRW3orbls7+kUZUJaJBd/qZx3zQMmtN7aS3Rr8lenXX+MEUpPdZYPDj3aG7ILy7CS/8d0F2lzWkUxSslUC8SMlH6e7yv62va+4zmOc+VVWv8GhCoFZ1QyHexmhlN2TdXZVMxwCvoEgv85XJ4EaQ3lK14Me742dC04cxtmHgv2vBshtK2jGl3B18o2qRBl0vUMxW3kkyrai2pK3SlS5xhDyOTA8+5JXDdmcPuedh1i67iOfgWCRQnXxdAyK9nb6jddTFoszqLMdNmw6/VW4WbG9WWHi3YB2Qj5QZbTFt2e0T2bVdEjlWK299n/o5EY2IeczHD6mZFyTOUeXdwZCkPCMi9c9h9S67ufhUj++mhRXr7urWpiTERVtLeVCkl+iGh9mVKcmC9Mb5TurQFxDerYQ3+bfeB1+HGDwbwzTZDSbtWFfLbu6brAKtahAHjToQqZVXEwmZE9O0Em1Bqt2ERPbdVFaSyjW0aJBbZaU4oQFX65zMM4R0s87G6s5g1nd3m2Q7+boGRXo7unJUvRo9J70oM7xFQUB4NwCj6Ye16p308+8guy9y6XA1VEa0qxRr3QhFWy2J1I/LwQ/ZnIgvefjwva0obPQr3Q+uLR+uUh5mS+nJbOzU/ByOv/9z6uDrGhTpNZyrV/a5aFSkB9Gubz8I7ybCG9J1e1cNWO5vkOxqLbKgc8/bxupCdgv9aV85Tcv+4rzWckhGVDDcjU8W3yKQ7+AdkbRNdAsNjdZ1JlF+yx+1vIZtB+n+/fG/JHuBTSf/5V3w9roMMdMVH2dKj/EsIQDCu4nwph588GyrqWmya9uPtQt+sfzYwMrbRQu29Z2TlGOSg++uShyXtwcfiEhV6HNzg0AUqXVXHSJydzZXuC7pnbzm4ePnNkoclKUXpLeNiKv63PIwU374eEB4d+tAD69C7klkhyZ8FcOqntbRZzdNlFX30p8vDKy8hmWhrL5jG8FxSyS3ZjCZ4Z1Ha909uCaSnwyjV3/4Dr6uIL0FzD219CIf74a3DBbezRbePuXfvSchTtpGB1deKfXAsms17Vj9n8qipcj+MHGQaboM3e2lf7cwc5I0yQPdmKdds0OU2RKO8hK+nJfx9cDi+CzFaK1HMk1UrmefsFagt772D4/0ts9UUflbxIl6P//W/S3ydrxIb/i64A3Cu4ZeaUn5pwuoAfUF2V0Iq6XPk/cW7Jb78l2HS9yVhfV3j9c6I6YZSZUVQqpUaUQ8mKysV8ojIvmGiN8QkyK4KrtCdYYFd5u+J8FHMRb48JwcTknw+za4e76vdU3ulKmikvTuJVOS9Ke718fizJHewnRBEIR3nfD2J2DNINkNqVRwfun1nYePyh+y0VMGUKm0Yyq9k69PtFdb8m7/jCQr/PHYQiDSA1T+FUgTZejw+V1uTQZBeosXpDRoqUOnzwdlTW8zf+bhgwpoxVMiAMK7TnjrJ7cPW4lYvufjx7HuTZSWN0+CPursri3ZDYnUx/vh89C1oY7SBdqm3bsSwmblXXJJkpQPvu9Pe9Ib1m9b631WCbBHpDda16MqGW/7OwjvK8KbqNPfsC2gQfTrkIVg1/68v95/tfh2P+DOc+y2UbKI/bkCIittJOdJn4gPTT8PDmkglXXXN9/dbbJvTQYd5LHuor+t91k1aU9uh6Y8zN5WYdGnv4Pwvia8PgYt6NNJQ1eS4ZFdanX6DZLsFtrzlYeZRxkk9Km0Gql0L1F5J9/pHbn3o6UkxKWJoFZfkA30wDQvfXpXfcJrgBoe6eW3bXyXq6AIzM2jajsb/87DDBxvCRmAsQRGSdoU4Y30aWfRrAIjOLLbMudwwGRXiTDKvKnruil/HpzQIC/EEPctTdVL2fXvTP/RE5+7yjXcdflN+ss0Ua5dYR6UWt7WBbbn1lkqqvQg0MNO1bZe/o6KaytYgfCuEN78x1KVg43wAdnNhdpPsptvvU+n/fzKkvimNxHZur5YiugSX/Pxw0jXkL6PE3ze9RakN8DctOZIb7o/ImJVyCW+x1CsTqhAgfAuE95wAhea6ZukX3ySaY8+Ds6yS9QqpVLglt2FrtzzMAvFR7GZfu9onV9bqtK7fUlF1Ba5HhLdBVTBE978NNs8CDn/foeVpgukt/H7Ha/vfWMo1GvSplOsfWRYUaz1xNDSolln8P9v72qv27iZLlY5MfUvdgWxK4jcgClVEKeCOBXEqeBxKojfCuJUEKcCiWogSgVRKoj8z3SOue/ZJSWR4n7g485gsLw8R78EYIE7A+BiMDOoLx796qoqOJ2XT9siZSKudyZCdqNTr4nIIUOjdHXoAf2Aie494TX2ulrc/IgK8CowY4FYIFZ9Mbua4MMUUbEqcSpovxYJ77aFdzG5DA1yuXZLI7tR134lpR4bXGyiLNv2l6/wHpL43mG2cKvqzSH46I5pSYGWzr4hRZLewlz5Ep5bHtKFCenB9jDFDghj88ri/0l4dwmv9cTjYTok9NJKgdGtwRkKpmPZjbvuDFO08kqvszqs3kzWd69XJPVvblW/nXLWhRhtnNALm3Gkt7gHl2Su6gu0eI+q+yHFboyBQcK7S3jrMcCK+X+ERdNnbOXlLwwP1ivv8YxByQWTfR89mEqZtayPX7uqfjVhP98PbQDfyr2TSO80GV2YTgxHHOktLXiLe5zf1Fstn1Rnbv20+YH/SHg3CrDJ49m8EDaBXzjJ8xn0BqNyErRH+C8XGIg3JLqDSEXmo7s+ZTaHuSZX8VRSmi1cVb07pIwLPnIeKlNYjtqhoTR5eoPz1xYWwBdF7H10ZFLxPEI3vT44WitDwntPeKeSkkyE5BRIBD+41fJpyMm2wDH2rydtHtXlScj4rS1OufqzOdg1xLcJyPwqVz8iv/vBufo93Rbi0CswXdfQQIOzGhQ4/mu3Wj6XWOcmc/gRsoTHzbC8tUh4bwlvcT5MHYoTYdH0Vb+DyMhwOTt3tTv1xcRwObFgRcNjhndtHcRy/LKItGZttgX31n1evpPY/OHgGm5wc+C5KvCw04VqBOltg3WbF9zKOOxV7qJ6sTxDq1SB5L8HAhl/ZzTeGu2R8N4S3vJTkomRnOJeo4l4Prk4Qj+0OvBED187DWd3oNsCXNrNU9Ut6Wvct8r/1e59dbr8LmQg5QUmy5C6za3fdTHkv1PIMi6OIfpkpSwJ7x3hLfy1lYjE4z5KWN7CHz65J+Wv5WQWfh9dOYQy6/lQvTaQ3YFpxYQVrjzSNwBIRCqvejF765z7URhmXPNCvqrl7YF7kIq4OeIEp9cSCe8d4S06B69IJH5xPq0RLh2T2tRcONnXW2qm9aV8ac2atGJHTf7cxurEnzACk/HjbHCKuPkp7DGGG7daPpNw6SnulnN3XpDwbvAg4S2d8Ao9G9zAUtgJP9ilY1K5diPIvjBXOIjm9YgviW4uhSosc8EwTIFW0OKu9CPcN3z1ql7M3jvnvvUtb6jcTTVfPjHUn2xdIeG9J7xNSrKn2SQR92GxF7SKy7cb6NKxWcgbH73SZN6lKcEZKeLUjbX6EJAjviS6ubVuOsFLLZLBqbyKu9KPiOHw0bGSX2Lj4xNrCZPw3hPe8h6dCCR5PpO6tey2yfhnzQHgsW+dzOWCXTrqxWwqr+oFW7Yzy2rSn99E+L8D5PKlj64hTTn4zA1lBXVH5SD2UbfiyP9mUCS8JLw7+l0vZqUR3mCS5zOhW8Jb0os7ES4d08rIUH9XvfjUXLXxZwiB9oaked2sdl8HduuDq6rXfCwiEDWF4qWSnU5oIq7+i3LtEEpV1u6PJb7It1o953PitPC2a8HGovmvwpqJ+UQEyfP98Cb90rlv+czlgq2bRS5WfSALXd1llulkPn/3bLGr/+c5qP9zq+UbiaAbz++z2AgC0wpydUFGk+L8eQXXx+L8eQN9t6e6ENCloSW8xyW9sibnt7t2ZSjHrzUw6nhSFprEjAytzlf1j6H5Oae6EEqOa6N3Q4n8mzn9sjr72JThTxCBejH7xVX1IuVWZFqH5rAbosJiO+SyNrSP0syuIm5wBLV7oGkS3hYcEt7SCK+Q325r6S7LT+uPar586bt6TCtILS392A7x51WXrwollRs8VAce3JI6csCVN364TWxCVIqubeiKcvsalnmwv2tZ2XvS1soh6IoyoJDwkvDeKnNBFt6gK6iQvW1nMwipmKNs84zq5+VJyNVvfTH73VXOmyDnGJbXNxPTj23k3FjxNwGJfKjCC3dAofpydt1lEWJACQBcjyYeWCeDsxU8/MSESO9VNV8+94DwrkhR+XkFyV4x1n5BDEL0JndZWnhLsfAmEp0xRasvZ+eudqdj5Uz8P9AqWcyiNAZuog50PyQiZwEZG86h/b8z6Kdy/1QvllNIjWdenB03WNdutXwecnDesfI219rV7MJV7hvzgx/vYJAxpbCsFcGEfhyu+xJlBPPRsNFe7IQIdqpli7DwBpK8EFmV5ZcVNnGLunYaFlqy73aPlZuv8IRMloSyPRsj8U/ANKRqT6BREhmaVI7eQHe5ogwJkgFs58dP3VF95Zz7KkQfdcuG7Zu6fdP7GglvERZeOWUtyrc1MDtFgfmE+2Z+cDaK/evX2Vvn3I8dH7iu5stnekvO4X6JhDev7HstcXX9rjr99ENs7wqzdg4NM8aftwm0nMdip1hPLICtGYN98i/HIRRlmPwpEt5WWY9fubr+NRlNiQYCSV5oF4oKVAu0ck/Gbzdw3Htkd0S/6UMaOmviypPwxuGGqlUvZk3qye7HdBItgB6ZOFDDkG4nyOJdFtmXdd+ynaqMhLeZOCS8trMTJFv2hlbHsiygYRPW/onbc99KjOD3culIJNSeIzn4YiS8eVVg9HGhwCv9vYPl+Zcn7uioCQgt/Be61ho2GD2UxKp6Vp19vJYQkO08xWEylcDHQpskvJYJb6LVYUzBCrLuBvk5bkhe83hGKU8jd4sKQ3bHcWAE79hUgfyfhBcCY1QjnnEa6ZkbLN8WhiAXuCbYtm5uD1zYytu8sFhXv4dArVOWhJcW3o2mGSV+QSQvdNIUlIYsOFirXrSPZ5yEYmKrfNrC3J2RoWeEwgcrW7jm6w0Jb0bs/R8XSvb1NO0i5y+CoAwWtq2bDwYdSOb9IVuXtEn+SXhJeC0TXuFr5nJySIZNVKOHl8A1M43sbhbdANIfhnHgYFj8bp2ZdQX4iB5sCf4tCTl+4/yfeL5yq+VZbLqy9fx79M656vui8Q8M5ism20/lLqoXyzMp2dj0a+YaT8Jrl/AG5UQMnbjFWHcDA/Y8ry1D4dItHzjmrs7VF49+dVX1KqDjJF0BYMUWpYU3Frn0esGvgwFI0SRIb6Bfcxk5aZ1z0lbey9lrV7tf0jUX1QIJLwmvRcIb8YpY6JQoZiEOWJSKSq/WJ7DEhyU2lt2+9GNDahIUmR2qbyx/a2WkhTeXLkQRsUALZ/fhc3ZV+MMUQanKijGmAA40Y7ps6zU6El4SXpOEt/6uevHp/dhkiv1/MQuSc0FW7mALTiyAcvU+uNXyadI1akLADFOTyQn2tuUe3z5a1+Whb/wq/3bORbxol0YUJvEwRSA5LMatLMCgEqOitm4c0/Q4ZvwW6zBLg60sDeKbXyHW3THtC8gAACAASURBVCDyZ2thiZrmyennkjEQTNcThcgEK/UQAfE5P0Eog4c0mpJsqMXkbCnusTuaNamwDL/ENQJpYGBrfTm7drX7OlhQmhUCiXxM1+wYYkh4aeG9tfDaSCUSnI0gdAIWY90N2GDKyiXcI7HEAEVIGjZha0eork6xPAlvHqkmHwabbmPmaBO0WCrpDXVtOHVHdZMS0fZPeN2zk72ChJeE95bw+qesEZy88gpZiHU3yOJV/GtqAeS+S/lwvsvy+ic4eYpomoQ3j5hAacLSc/SW/jBFoEW0jP0mPSPOmFaD9G/sM2Mm+p+r+cc3iY0UX50uDY1LQ27CqxGodt5eqzV+bLYfYwi4Wi8mDU7fMhF4TfiwmaBcu+NL1R/VfPlyvBhLxCLQTXjlN9zY/k6lHvBaOT1dWYKfvQl5BKxZdqybI8gF7DmxMogKmoz9WGc9GjRo4bVi4Q1M/RIzD8p4atd/UpbvypBOdCLSjw2pznU1Xz6L0S3W8UOgm/D667zfV1hq72CIfIgm0MrZeStjLmVVkM6EuTaUMdagAOkgtKxwDGHXjRhMctShhTe/hTfoCj9WSeKjlGO/GFwvLFCt7MTuydZUkUhoBUtHsFZMqAIJr74wNwfjf6FfRqQrK3n9CiT9BQSwJb+u56NfWV08SHhbEZHw5ia8icEQXhPNRlDecFeDrsqOywiI6DTvuL9cvTzNlX5sRAj08/KZUJFlSHgjgUuoJuY/meh73wwp/zV3ArABt5JiMkjo/l5VgDzHupP1BTYSXhLeWwXN58Obfq09NsnahfVydu5qd+pTNkuZyv1TvVh658gswFrdB2NyJg5IRoZ+IdOtQXACkPAKgtvTtOjal0giCs/RG2QVLYDcqzy+I3Iz5zOtEnXV5xMllKGFt7XwtgFd2Guvceknk5/xT7QBeU/dUd0Eq9n9BZyusy0YCPQSrfm4jAwDgwmQBQKSQ2qDhFdX2gqGDFTmhlLTlXn7virIIl25FEhhtkA+hbGlC0C+BRLeDcZJicmj5KQTrAKMUI4a5WilAOvuhrz/aT7TRNegAUSyRgbf0Mo7qproAj2HNW/SgO7P1NtTuglKz9yQO0tQiiIEECn7Vl6tG9fjV66uf02BPbhuorEl+HtGK5Dw5iG8QQFaKbqjtOjHdzFkwbTumtGPQjKpAWdkGJZXgD91vOAPq+aAdT7oaviwUIsfrarfaO3eV6fL7+J727qdvXa1+yWljUx1vV0BCrDy3lTz5RMNHLUD+fh0/FqqJLw5CK8SoShggfHOUFHAWPrWyfSMDPq5O4NSD2lsEKV/Y+TAkmwlLB0fZP+zpCwErOlZo/hTBBBwe2V+jAFjSYFMO4c8CS8J746+1hezK1e5b1KU2KtuwBW+V3sDhcwvLiHW3UX7aIZ3YFsqdpD6NSAjw/p1puaJTu0HQ7wtNxCsJtpIwOMgJL0gHcj2+mLAetY3VLV9CIT1pplrt1o+98k8U0BMSbKBwhdaTRcPEl4S3l3Cu5g1gQNzX2WNLqd0gmz6Vy/aQDxtouQLjb91V9/C6TuGoXIf3Gp1Wp39dxXbmEqQ2mDndPzMY/GxXi+A7N4O5dqtVt+l6Ix1TKT7l9k1IPlmJFtQU7Jg/NcK+4aY5RMf8p4KmeKt5YdqvrTKA1JhDKpPl4YNXCqnLU3rrvXcu57WkCzXk0FTqKdwQJ7KAWvP765yeZ/7VTygIWC30kZC+riGNH1XnX1sDuD8BSCQgHnAV0aLJt+MbMbRBOeW9PMm++atvAD3FF/BqfAO57yNS779LrUcCe894X3vnPtWVJCK5MH4Kdp7ApaZhszf2tFLdu0EsSSnXhKdUwYb3wRMNQFI8VYVxbXCIITBXTJCdm/7nR6kamf+B8jCP8vBVPanAHA6iypZeb3329TxWK9PwntHeI/fOFf/T0xgitbdZgym3Rm8rbttDuHS0pAlLy4GLTwkvZ4LQ7149D/nqjeexYeLAZ6whfTDeCMmb4EQNzwlPj/s+Ty5wTVuV8tXOm4Nm71a2p0yeU8yvgR4d4+EV4vwepI8b8kNFNSOAA3qcwDxN24F2B925f5xn5cnKf5f+f12e6VJ0jui6CKp42r33tXLH1J0Kmh+FlZ4cz3+u3PuxFjXva/4+/pd5EtsASnalK7z49RC8YZF3sqbfuMYB6K9WiS8t4RXNjBK9YRl+rEJz4XEvJ9X11wGJPfOFmHutzaR9HbgFBGc5of2famrjV/vdWjFKZc35sbQdQC+qF4sz1JksBljWS+xeRp35IleCvJOLVuDvJWXhPdWE0h4bwmv5Gs3niQvaXpuVTb72MS0rbs/VS+Wb1NkqJosP6Wjyvqc0lXpuhtC0lgYpVPm8bCxvcat1+sG93g/aWnlaNtPJxumb+y6MKycN9E3bOVVe4SiJbyi/MMl700qU0XhIyS80oQ3gOQh5G3aN8oz+rVA626yBb+8Z5PrN9X8088InS21DUhwWvjgX1fz5f+FV5tOjXox+9E5l3S4VEUDcfNTmj+vr5VX9mY1TcwAP+yQDoiRf09ZhPS11LIkvHeE1z12R23eWuxP2RqWOQ/lEHbezykX5rvrPa4hcOoSn02u3IX7vPzu0PxL176Vj35xVfUKu1h4tnagfr0bn9Zfs6fq8xTTVrHkR0WK8+cNsfJezq5d7b4Oh1W8RnK2jZAeill5SXjvxEDCu6WR9WJWhyjoaFll627Tn3oxk0+vNjrwrgJ+KWuKs+4CFpMyU6/dyfig8sZublB+NRAkdVCPVCi6jkStbh6VksmT6du7LgA810bD619yTmUPvdgpIvLSnmfmjNC+lliehHeX8N44577CCTLdfyu0L2bTkXlOusKsu4e3ifUq5LRdHNaBaY9+hKUcC53Y/eXfutXy5ylb2YtzYeiTlScBHLkJeu1q1+R4tv/ztPJugj7xt6sIhBTTk7UGKwEXDz4rfK8IJLy7hBeZDw9y1R0yZ8WuREI60V3Wy8e1KOtu7f6qTpfJqZCKdGXo04fWxaH6oTr7OKlsApt51Vh1pQPTYmfajavqH6oXn5rbncn8CnZh6JPBtVstn6ceTsR8PSU0x5PkmzV0KPvxrkkv1MWDzwpv6TUJrxjh9bvCR64xZq+GPBcNs4vevpA+uFV1kkrsDPtbp6glhHzVi9kvrnInrvFXXVV/pGIdM6CW6H5R/8/V7jSmvnqd9YHj5xzPEm8Oq9/eYlWdLr9LGf/mkFFAFobQUabf+m0sos2hEngbGToOz/LeVt4vT9zRkcXnlJNv8TyRuisG3he8jE2hfSy1PAnvDuEFvrYGiMwNVSqTJ39PP+airLuAQMTysjKEaqN7W82XPwXX6k/Rc+Wce6dBfosjug9Bboivq99WLz79EYO/b50N8freOdcE7+3ediTMEehrdb6D0SwH2BsM3+btI+lt5Z0hb1hREtX3423dp2AB9CS8tPB2zwWYhRR03R06Y0367/qmIisn7Q4kIfmkXBn6FTXqwYRRS39j9a2q99X842+hc6Sv/BZ5e23YdSF0uI0VsPHx/S31Gn37w/Xlo2/dqno1ki0heJ60Mvhi9nsxFvVQadyXh5Ao0w8MbWPja+UV8F+NF9F9zRw+sLjg8/QbBQSGVtqghXfbwnv56KWrq+YaLe2XYN2I/bBZC6lHsJrZvu8LA+KXXVwi+VilbOuFu/YEHNxuXO0uGvLrVh//CCV1a5J7/K2r65euat0WcI8YNM9M1+6BL3PVWLA6fvWuy0TlnsLTNG0OCW7lFqHuIWsi+mjuVu6lq6qX3jgFBvwUQ+CS5sOmsqchYOxTYH/Psc/F/9/DymvWVcOj7/HA9KwIKC4CePgEPbac7ZHwbhNezGsnEFIUqhQS0Z2hfego72XlGbXoAToCacLTF3nsW2ZfwhvrePj/g32dE1MvXbm6vnJVtf7r5JarU+eqhtg2JDM56NDV7i9X1VfOHV27VeNK8PmmOvuv+9uB+LVYuC8euy/qxpe5IcGnrnLfBDbTVXyDk7t2lWv63mSn2f3VdYPN040fdZwPc+B8MUt4AIB3NHHjVstnoYe0PTFh9iyZEe62WvBekMdKCjnMBM5BDUXI+Q0S3h3Ci/CdCbdoIRTApHXEY7JtNrm/va1GCLDi2vBasMeahrnNjH3Iwv8jrFjggA08Ci3BbazK9YX7/OkilbCEdnBjbT11dXUKJMCh3fAsH04UDuv2w0ECokyu/V0a4nXbZzJ4DbL2e06au2KQvQLgLx7ab8vlSXgfGjYWs7RcvJkUzFzAmm+w2uWshLySwZbKTuPi+fFTd1Q3kci4q3O7q0tUsIRJa3/rnlC9cyv3LtQdQFo8rTvQF/VLt3KNTy3C+ovscqQOWH08BwnNpi3AfrHxfb6Cu8Hgh+tF8EUeX0gby3U1Xz5LayK8NsLVL4f/cfhI9WqQ8O4T3vhI0UzBas0Q4K/Epeug3+K2mDXWXav5TdcoRFgqOwlvOYF5qdKPPiAYOrh9WGeFWL1DuSikgjpWf71BNhkT6ibwzkLKqiiicFCuDZ4BXaOyh/l8jn0p6f9ebhwm3fMC/dGTUNqqnBS85ml0QvW1hHZIePcI76N3zlVNqp3wH4gYhX4YcRIM/eZoeZ/rqzIW6Sgr1UN8ikojNCrckQIJQZv1YtZYwNN9a+PH8MG56q1bfXyr7a4Q3+XdmmuL3/FL5+o3ua1+sRamw5ov9XeIR0OSyBFK+cba8VgbTL68liFwrTVkpWWugOxdYyIt6f8kvHuENyEXrwfJk1AOc5uDp6W7iNRcgCvH9cI1Oz+AdEvNUJP83SCBGjGTrHFbcNUb9/nj+1KJbtew2w0zI/GNJbztnFnM3jrnfowRZ2F1oizhHYfqxmWqCZi0YN3vE4HXWM2Rdw+iLqFzaeQ/3IdeYgyW2iThfUh4Y6NePUmehPAhzu3IjnlYuhOj8ZG9HWrLyy1jrDOJp/Sx5u38vyGNn5cnKYQxj0tD9XPJFl0fBdisEequDimEtyW9F7Mrg77JPpCHlfFYM30aNLcXdHXaJ5g5zbLpA1VgmXzkMZr8g3QqECjTxUl49wlvc0pu/ErDfhmVy1ygj4el21yf96UNSy93MGnIANd+yoR34Var16X46IYtSPulN65P75xz89S2POsnX6kWcjD2hGOwmJd/q8+Hst2S+HRuXcbrFqhODSD3749PyWRd9vlIV5logwlgPY7ts9V6JLwdkokKAPMgeVJKoEwSxoYxupgVkYoMdIVlPs3WmDT9/4+xhi8SXIr8+/rBVe5N9WLZXJkf3G+T+qshvsJX35gUjYczhzBWRHMubl0zzGO/NGYU8XLFkFhMot0aMgXaSWCAapOEt5vwhmVqyOjO0HQ/iqCjNOhhOx5EMfrEKtXn/XYhp/kiiD0CU6D+i+dhbfLo1tVLa+nFEGIIaWOjm+9Frb3AWy9jh/oQqEPK3rhV9Ryhm8bIYgcG4+RefC0IkUyTrGe+zMaXItwaPlTz5SGkvwySYjYBBvVSuXDwYgFc2GOGaorwepwqDUTiD8PsYX3wkVMR/nQ+AxkrAwrsaw9v7XO/s3/HPhn3//FNNq7dcmuJWk9B82itF20Oa+sBWQBFAFnF1/Ooedpa2IofPeSbar58MlbblFsDcJ0bG/fD/0eQf4jRJrSf1suT8HZIKHgTAC7soQpjzMfNw53h+NQd1eeh49QrjyFFB2PdFXirHW7Na4PpqlfV2cfm5oa/Bwi0a8gXR++hKcwEcoAGr8ulShq0n5jHy+c20FLu8ow+seGGAMw+VuoU6us3CW8X4Q3J1CCwsIcomSl/rdIWsIdAA7IM3DYZfEsQInQrZYGuDNtDAru8LNxq+TIlc4QVuCX7sdlQG7/ebyHfEbr1irjahQxHtxGMlbe1jFvOcuHx6EaEZVNOVB77m9zHW9fFxgXJb356ZMKQ7KvVtkl4eyQT4CYACdaJVRBTp/gRd4bwU2osKpH1QCd4kw+BREIyUC36NTWfrmAizWnl8MF697ABeeobluHkYf8P5hU20PW5sRvAfXX0sGbbcWvIu54E7fUg/QldP6yXJ+HtI7yXs2uvK77MimXIT3TUZwhsuUPPrVF3DN8PHoR1V8iCd2chT8vD+cFV9SvE61W+Mp9SuQ1Jatw/Iv0/ZYmBKauflOA9rJ++nzb+gMeowcjQejraV1+ZxJQLMaTkDLCLGZtWHRLefguvz/VB9khIM4uZBwEyHazmYWnwmZQhi5JPe0bLjB5uEP2Ouo5lFgYE9OvgwWp2EfzoA9AtaGgghkgQBO/ORmA3TqYD2EbTfRk64Kise4N67+eikr2fcpMirWUS3l7C65UPFGYVjBUjPMAntiMjhNH21RrOInUAG7GoK8PO9XqIL31TsSW7y1P668ZO4v16wfqs5DvYEvIvZldet3A4OHRbQlp5LyGuKjLjH9EZQ65w2Ymkp4ErqyVaRkkwrZLw9hFen802sxN7u8cvZmE5gzF6s9uKR+Ce50SV6N1YmzB/w4Ow7npY8scAD/m/t8sOyW4IrEFlA0iv6kZryPIXhGdQYZCVt90rfN30gjqIKDwepGdin3PuqpovnyNGHNuGl84b4CWx45OuR8LbS3g98oGCrsFThGxkIRjd6OpFm1vVXiJs4OIQQAxSRJ6zbhYLxyiuJLviOjEqA8/nYtEdDYpcR39coz2olffRS1dXv2t0O/gbYwHPRizUuX1jvazdmeOKgmWvWIGEdwDswROxh1VTQ44miOTYldSl0YUWKMMDsO6quTJ0zZtewkWyq7HMtN+wKIODyNqAtPJauBHs0tgRw4MVl7jchHc9D4dvdS30UW1RCvwQCe8Q4R3Mezd+DRMoi6jiAenTotr3qjR2OreUPHx7QEB/Qw8LmBeUZgspuzJ0k97ZW+fcj3f/I9lVV5d9Pc+/Dnpd86ojBfwg0srr46oH7HpAU6PuAhbSk1kgkyNuXllu4QLknLUoCe8g4R0IXANehadoQHbCO/L4gNcVTAoA8XVhC8MBWHdhWMWLa12zJTeueuvq+qKaf3qV2h7rhyPQ+uNX7qVz9Wsrqd8m79qAtfL6ZCAKV4zUGmOBzyEPL6T2pa++BTfG4UPLqHuhFDQltEvCO0R4hxTLgOK3BGAxqzMr2uAEM5t7F7qBPHrnXPV9ZjlIfR7iylAvjr+v5h9/k+ok2y0Xgfry0bfu86dFSnaN6bs24CzpZg/oI7dIQQ8vSE0H4L6R0sXefd+IIS5lbJJ1SXgHCW9P4BrQ9zNVuNkJ75j/roVT+T7IMIvlZqP922RAXqpyNfUBrgx3G1Vdv6tOP/2A6BbbmAYC9cWjX11VvXIuPTXg5F0bgEYWoy5Yg24NJvx47RDe7uxMDFgbXBhJeEf2jZ7k99nz7952OzvhHfDfNevOAFy0vNNmlclPkg8GewcCAIEuE0r2+iECewQVQOim7dpwAFbecbeGvDeawL0jZUXoSfOZ/SGslDFp1CXhHSO8nQFX6dYIhHCzE8oRS7dRd4ZkErctOxNZMhDK1NUGgoBczH5f+3ve/W7cqnpenX28luo227WPQOfNCCA4a/KuDSMBwiGSN2nlHXNryJ1lwgrh7U7TBt3bQnSplLIkvGOE9/L4lavrX3eKGfGTqfNH3A5auk1aW4ALllFCD1p70g91vfoJIDagQbKZTAj0ki3A2mrC11MM1/R5eXc7eH781B3VjTuWpd/gU8PZHzAC7h8poHevrTjdSOmb5bokvGOE9/zLE3d09OdOMdNKr6lu/RMsu/W5GwboCbhezJrN4qkm4irfGsm84duHQXyAKeF8+8NyNhAYOajfuNXyWUoAWzPKsVylNpCI6sUgIQxt0aSVd+BmKbuRwcze3xFfxDV1VP1JeEch2s+EYCEXX7uo57bwDkx+kwEkwMUqO/YeehtdBICTh2/ztVstn6cSm+gxsmI2BOrFrDEgnAx0IDm1ktlMBAjUgcTGJE4Dbg3ZA9cAayNCBTaHul1/ZqC7C6qP1toh4fWQyI61wFKGhnOP5489xhddZChgzd5jE2Dr7mRTkaHIRkNqRp6S5hVc9NwrtKK3hQ4Qbe5x6CoURQcNmjZo5R1zlcsXuGaL8N5najDESyxPKhJeD+k88BuCLjYenx8skjFLw2BEqLnrfuBCNdlUZJX7x31enqRaXev9QLU+HWYAW+oCUFD9oHkD8vPuybJTEGo9XQUElN62bNHKO3SLmtVdBbiPpCqhZV6SOjap+iS8HsjuXM8Dgio8PuldJCPh7bWYZr922kcPa93tCmT0lpjhgoCr0nBXD1yqJcPIsmutX+3Ay5VdCAHW2nB9LEVU2NsRc1begbUoa18tEd5tl0ame/SauCS8XjA1T5oet8+YVi8+vvOsolIsH+EdCFgL3dikkQIvUh4+iNIjkmgfcnMRZdkHXF9LAMI2cQhEWhEhft7ZI/txMG63hA1eM5exof8gHHxwQuIP3ktSu9Ye6L6oT6oXy7epbR1CfRLewqWcjfAOBRaMB6Vooo617prbGCBQfnCr5dNkV4bu3JDjHQRdX49/iCVyIRBvlUu3ZLauFF/Mrlztvs41fpHvgslXvIxERtdL6HNa7a0ErIsgfgCNkvAWLuRshLdnsTWXjgxwTb+tIpO0FgGuw4L8M7vmHHjzLnxaT6r7yS5OAH9Vk1ljkqWMdQfKSSQ7oei5+Ym8LUhGu2mAhBcCY7ZGSHizQY/5cD7Cu3zSZRH0jsLGDH+4FYHI1cm9rAbLuZuYtYJWXo0ZkeUb9eXs3NXuNPrjIN3IGuwUPfiRiuBUVKYwGr5FzJKpgYRXSpF12iXh1cFZ7Cu5CG/fxDf1uhog6GXHujvFYDWAZRVmGQL0RWyiseEoBGDWOMBNDawvUUgIVQLczuyscblzu+/C1B8YfTG7cpX7RgjV3mZJeLURx36PhBeLp3prmdLu9C9Edl4fG0ybFiOoZEtVzEdl6yTn3G26hwviw17RykLH1n0QAAYYgQLYAjNF+Awybxlo8Fo7ny9n11b8nQcMK/c5aBXxJ+FVBFvgUyS8AqBqNpnpCqqT8NqyoKQHuzywfFh8dz5F1fIGqnX3HBpgmAIO62IQwK5PmDltidBBUAbfjJhyS+uLFcmRCUjARQ4ifzbijQAJrzdUNgtiNxTfMXZvPMYWymfV2cdr3xGNlZtcsBrA3SM5UG0fdBLeMUUs7P9wFydEAJuta3uARLE3I5t53aydXwE6l9hEz16Tg/A6x/UpUZq5q5Pw5pZA4vfzpJLpW4QSA5cSsbivjt0Amnaj8svCxgNvCLJwC+gexMUCjhYbjEYA6NKw7gMugO29c+7b6IHZqnjjVstnqWkFt4dk6IDfmR88U9YNyLppS3UOqzckvIXLG76h+ODRe800+9s599SnCdEy8Cu+Ry9dXf0u2mfNxgEPPSSnmuoaLyAwSRNGfmscARE9AczvjfvVlQ0r5jiOoyUANzY7hNdOvvGbar588nD8sEDZUWB3CpDwhuFlrjQJrzmRhHXICuE1478LSrO1a+2wYrkO042e0hArqkAAHzzIEIIWG0lGQMBnFhKolWXtTEaztwHIS4kPrLw2rOAdB/Q8+w3Gh1xOBdjyGAIkvGMIGf9/lkW7awG6NGIFhVs63GN31FquHxtXBZ/ugQLVjl+5uv7V54MBZeAbdsC3WVQQAZnrcQz5ECDjgkiONA3wb94hvGbWdPdT19O5+ik5MTqXT0H4ZRLewnUgx9VOV2oWmU0tWDhwK6GpQLxgOB5UAOTsFAhUW3cSfFBJhYr1cQgI+VveuFX1PDUwlfN7WM5GDgTdfryLmfLjEyS8uFUhT0skvHlwh33VEOH90zl3AhtYXEOQ6/odK8diZuNaLw6P+1qglDpiNwrgF6NS4WJ9LAL1YnaD95fFBKfmyXSDxXfT2lU1Xz5Htlxfzl672v2CbDOirW4/Xu18wYwxiBCdrSokvLbkEdybHL5MDy28G6vfv8GdR1cAX+k13dO/NkODsmkPF+jTuHdgfwJ+19gOsrVUBODpyW47hNHrU3dUn6eO0UR98BpoeW1XP6gAdM2EjhxwJ0h4JyB8VVLWQU5yWJk7xAaPoBW6is2hcRBsBALV1lgAXC3aw8m5e+yq2a+urn5KverOISRL37zHcvkDIt2VoOsAxKopkGIvjzgFXINMYNMxLn3Cu3yCmAt5FINfXW81/BWPgLKf1R55ErvmDpHMVBf6EAz6ygKsPqKHGkCatJbw3l6/ggg0AvpS27g/7GH8FkUthYC5P6E0ZfDgT9G57z9B9tzVtAkvnxX2F5bVkiS8ViUT0C/lid9BeLP7ucKD1VoCtZg1bhqFZ2eA+TnK5FgG+RZv5LXpI4akBUzByRXdOsR2+k/GDLi+mF25yn0TU3ekDuThBRMHdwQ4Av7wykaVLhS69p0L59wcAdloG8B1avRbLCCGAAmvGLR6DYv5x3UPoWvhyU0M8cFq51+euKOjJhCv5B8mDZnsM54Q2e1aoUh4U5V2h/wBLKg7FvjUznXWT5e5rSd1E0ASCK6yELy2Fzsiuy49FADELSxBqqwKQICEFwBi7iaULRM7E1/0qtIXWNCV+PbnlDH1HWlgORgJkMtDDNqcd/0M08cdCPTkiu8SXndRvViepQ5S5NW17U4hXHcuRXJMp0IXWB9zq7OzHlp4ee3BOq+7RuMxDRQqiwMQIOEFgJi7CeXT945FLrt/l1CEf72YWUizlqJaIOuu6CtzEFeU/UMXCW+K4rTW2IfWMwCZ3Fh5r13tvk7tX2f92r2vTpffpbZt4Po+dQiQl+gedkL5JnEfgwc3DbqEl2tKqlJaqE/Ca0EKiX3QJZ27E1930ekACnTdas6akagTiIccxC1yzkECbPYPfHKbUxvMtXLfuqPq6Y6I6jYHtY+/942r3FVbt3ZNG7vtdMv9vs7t/1fuxh3Vv1UvPjV5ouG/jnmNcT1ZzN46536Ed/gOl+qsOvvY+HZG4Pcz8gAAIABJREFU/yaRnUXi1iv/y2u7xhZNlwYGwkbPJ0sVSXgtSSOyLwrEZKtnDwlv5oA1kQCNwq81QQEWYmnIbrUJdFipF+3Tz1vEUZDw7n0rctKCqklFjnccoiHBawpkEpSmbKYXEAXShd1mZOaAzAMi3gDsutNpEl7m4PUWkuWCJLyWpRPQN71cvHuEVyZ632/sEAvhw09lv7rzG3t/KYBfrMqtAeCw0nnYA4y/D1y9eeanBIqE1zkQruIYAg5SKvrvJ+LYUhDiv782iro4jY51W99VbxdBLj2jA2QBUQRIeEXh1Wtcz+9sj/Aqv2e+bWyufqhefHyHRrnwdGSQaOJ9qykYZZDvdd11RS5ojREna6EwAw4NXZ/sJnyYwB2FA+W1Wy2fpz4SYOLBhVB92C4voBvZDwJbxFOT8EodLFPEy7rhCJDwhmNmsoZeLt57wpt58YMEZe1ZMPL7qaXpF4DsCb6KtX1a+bmaf3yTNtg2V/L+DQMAA1p4j7ue2wW5Ncxeu9r9kir74frpV/o5nm2HYgKwdHcehi5ncoGHYwBszW3FYG2IEWFsaPy/PAIkvPIYq3xB77S7RXizpvDBWJv2CK90UI2sNiQvzJuMB3JpyG7HDwiq6fVdJ+GFaFmnNRvg1qBEJEGPUeS9wk8T5BTXyCwGFxHXuTTZsnYMAiS8MagZrKNjlWsGvrXgaAYNPMQcsPF2Wi9KTkcGIHpKBydMOrI+/QOQ6UO38Dbj73HfwGRrkHt1bUt06YRPiZxL7SgQi/yeUSDrozz3MtW7YUy/LZASMNsNQ4CENwwvs6VzTH4FX7w+vCGEaX8hd4/dUfuccIE/xObejl/euuvS+7ohZJ25kiX97az58GYYKyTHa6fvtcSsAwQbFe3LK3T404sZ2VOKu1sstT1PyLgioe5scxgBEt6JaIjei2fbFt5cqXswhGmP8Jbsv1vSxg7wLRyyvGUggdlWkSxjBZAoNbICeIyi6CeHhfLHqh1Y9mfWndVaTYcAN2fZFgh+eAcBEt4JKYROjsQdwpsnQ4PQibtcS076AUD16hYQPT7kwpOFBGZaR/KMFXPFq7NeOecAhEXJ1UdCi0T8T3Vzv+/CcqvzWoRXco5JCJxt9iNAwjsh7VDJ1LCxGOhZlPcEJOLOsLkiz5lTOF4TS7Lu4tKRNS+MfdsFmuQGRZeGFvHk4MjNfOuVYfxk6KhZuYvqxfIspc2Crbwifryt/HJla9gcYFQIL2i9StE91sUhQMKLwzJ7SypWCM3FphPRdGtmV7OqFk6opqTjoTt2mHWw8bXufMpXmPCaeoFLdKxDhEbYSg+dIk1jh2zlBbigdK6ZuTLabG74VAgv6PlzuD6zwSgESHijYLNZSSVTwy3hzZWSDOD/2bl45xpPqiohrLsXs99d5V6mdsWrPmDzHbtOFSWBi1x+693oZhsrwK1I9aB1yFZeKT/ebNka1odmHcKLOaB7rY0sJI4ACa84xHofGCMCkJ7cEt5cKckAlqVua0WJ+TYh1t2uBwYgqtLRCMQdZewmIxsJlEKtv12Ia0Ff8yMuUpj0ZJrX4odr5RXx4230JpNbQ6t7KoQXoDP6ywK/2IcACe/EdEPcx/CO8GYhiHILd9eLXdZ1A2HdvZydu9qdKg0VIr8xX3USXow0R3AuKz1ZA8nhWnnl/HgXWfaB9qCnQ3iXT1KfqMbMRraCQICEF4GioTbGyEByV+8Ib4arXbGrueOn7qhuAtYK+hVn3XUO5I4ycqiDWJEjrZ7a+pPTwtv4xT6rzj5epwy61k4FCLDYjd0wpOAhVhfgStR5M6Ytv3Unrqr58rk44a3cP9WL5VMxmbBhdQRIeNUhl/2geH7Ee8Krn9EAsMEaWrTTFAGAhXoaNkSfz4/HXDCESWAWi1afrgiPdeRQC/HjVX7s5VCtvGLGAmX5bWZCc4sjTngZsJa2RxmsTcJrUCgpXRK3mNwTXt0cvIKn7fIsNhDrrq5VGyQ/D1kJk8DjN87V/0uZo8C6wmMdvcXB+PFqBwJCrLyzt865H4GyFG4qfc0wdeuxqp4555o17FwMOKFDglh/2fAoAiS8oxCVVUA8P25V/eA+f75yR0fNs66aP8jm2mnh1d5wU1FDWEr1fe8g8vNw2REmgaYILwTTBCLTXi2nqrPHISb1E7v1IVbe4tygID7X3Tdks9eudr9ghTTS2qpa51WWJLxCbiCqOPFjOwiQ8E5QIWQjZ6uf3cpdiC40XTIBWGUGNnZda3WaziUTOtV0ULdjBVx/N015BGUm4zMkHnVyNqgrsimTPA4XzgGypqhkl3mII2A9UXcJSls3ILLqJLw50pO1hhd3LbgPicYCpIqS9eMQIOGNw810LdmFuPrZVfWN8olebPHJstmmaE+pGzWEGI367zbIkvCm6NdWXS/CizvI3DjnvgJ13aOZ9Cv+LAdHj5H1FgGsHb1GA830cm0nxA0voutIihhZNx4BEt547MzWlH2AovrZubp54UrTfw2SzqrTOlHSgxOAZy43Li9NwGHnK2UiSg3od2vdvfS6OhXdqGjhfaghGCtzvZjpPDO83X2Ia9Con7PIlIprFCOrznVU30XqD+eqKzl/ejms4mTHWggESHgRKBprQ9jy8Idz7ps2YEDrB0pnZWShjkcNgEMmwgbxNfUkRbKEdzxLRLx8g2vKbspeFl6QRd3zMBOM0EiFZL1UyBSAHLOg4eDRS1dXvyM7O9LWjXN1Q3q/F/mmoDVcpL9s1AsBEl4vmMorJOvHq4wHwBLT1+N6MWuC706URxT+OViWg5l+OjnctbdP3w+H8ApHkXsSXod46CMTcbxxq+Wz1IcF6ovZlataI4D1n9wDFOd50pNJAY7Qaam+sd14BEh447EzXVPWj1dx6CCiN0B4ywhYA5AbWVeXAZ2A+O96b6iHQ3iFrVC+hNeBotk9AhLxC0/J8yoGDUnjQTnEfww5MUv42If5f1kESHhl8c3Wung+XrWRpQeX9JJdU9fTg4B+cKvl02RLlO4zwusBgQ4sARZAEl7Q3PQmvABXm6bL3t8DjW/TDCRdVzE3aqDbli4RiD96hJV7f2uAQ5BWV/mdMARIeMPwKqa0eD5eLSRAm2nnAl1OwBrC11D3oYk7wDEHlgDfYxJe0NwMIKDJ+rkmvJlyHAMs5dn6HixrOb/vgENpcK9VK4BuLFT7zI95IUDC6wVTmYUK8i3rB1jyCi7XBhuqTgAMsrm4gA4sAeRLlPBuLJE23GAARG1IFbUxz3grlXyFvTEwXOumVgtdSNryyWMd0RkbcyMKGtyNVOznWU8WARJeWXyztl78FRPoOrxPCAEbek45Jm9QWVKR3SIGspbUi9m/nqnUDojwrp5XZ/9dSSlnyPxABPlkvZUq+VAZpgCQ1/EKX1MHEMPcSIWJhKW1ECDh1UI6w3eKe1RhDyPZxadeZMhYEKoHACtetmA15yAPhgQSoYMhvAiSCbLwOljgmvoDBrcIpF/1C6eDDF05estL6k05rh098Aj6OMMEyIaiESDhjYaujIr1Yqb8ghEQF9B1+IA1wvb1G+rBhnyp1yDkM9A3UCz10q0eZckm0KHEksSl+VyIhdeBiEI21xvnMMFriwIeogBYs3vX1HICgbuHAMgoA9wB2RQYARJeMKDWmsu4gaRDcegLM4Dw57Xyp1vNWuLl98Lanb4pEEETh0iFcV445+Z+Exkl6+NXrq5/9fsmuBSAtGf0Q/YHA3BrNHIzYNuQ0N/5ZPcxfyGwZA4ESHhzoK74zSIW4C48pP137WdowKQiW8zeKj8DfS9N0MYa6otuiwjKTXZj44SQhbwHNIwLlf0UZZjDycDNWcBBSW5+BLfMdGTBkJVWgYS3NIkF9jfQ/zGwdcnimM2nf1HOlALJHzJQqifvYC//nvmWBF0PBl2tN4HW86XouhbaH1+4gsoJHwhby3rY9TwsGCqrGxZAZ0NvJILkDiksvbZmPGSn4CN4o5jSLdbFISC6MeC6yZZSEKgXs/fOuW9T2lCvK3zaDtzM1YfvAItvxmA150D+xxvi5ZuhoZXTQRBe5yD+0UOKHTpHULiHfhc6OQHrTgFGBlHdKfJWEbheQfWRjUERIOGFwmmzsazEJxYSUDqrfguv6eASyIaU96CDsSLFkAcU8TKuOxAdGSG8QQcNWKaGvPmxIZZq67ETknOklGwVD3QfcqMWu92xng4CJLw6OGf9SgxpyNphHSud3cAKRPDM+XGml9U2mgOwlLXW3Yiob8nNfGNxzucXfT8xNQhv2BwB6G2L7+Wjl66ufs+2BgEO2zF6qzle8TmSLb1cJIoAmUd+mdUUESDhVQQ756fyWvuCR25vMw8eQmQFkG9mdj9C0AYSczshvpnntUBuFAtjQR+x8IYRXocJhjJgIYRY+0y/dAlwmRrRnXLc6EBrbuSKz2qKCJDwKoKd81MxxCFffzEbZ1//80aCj6GKGXudL/duO0AU6YxJZI/6dq/+mCC8GD3BEl4cCc+c6QCSy9n0mgvKoNI7RwJTCY6tisL/hxxwhPvI5gEIkPACQCyhiaLcGkBXo/2E9/jUHdXnJuUGsLwYIPQwC33MzQQJL0azIx7YyCp3zKg3rQDWINNrLmB8g4el8y9P3NHRn1CZSDUGWHOlusZ2sQiQ8GLxNN1aDHnIMiBAaqDBxTi3j2B/5yCEITRvrYCMYRaTmIh9ccIb4VeMx9iihddBLKMNVjGWfSzGGGu13eA1k/qDFaFPa8zO4IPSZMqQ8E5GlOMDMX3Fdtt9BX+q/Jtpj6wAL6utycLsb+fc03GNECoBGsdmLIF+pDh3CtM3BMIWutzYmwj6Ahy8TYyjU5FVCK/9ByhAwbVCKymbBSNAwgsG1HJzpq/Y7oGDvNg0aOE14YO518MP1Xz5OFV/ske4NwMAXRHG6utBWHiFfTBjCa8D9StW9qnzZ6c+6OCW2R+5DxKFdbaAByhAaxVU79iYGAIkvGLQ2mzYvlvDwVoeIG4AFq5QUYQz2joGIl39Fl4D/onCY8xNeNvv509tBSGF2TOmdCsyxH1q0LBg/fl2ujPYJCmCvSLhFQTXYtMmLIBDwOhs5Pau2lBpvBYZnxJeyxW2kUa74OjoULCrBXQ9MDtG3IHVxOEc49aQNyd2t+JdV/PlM6hOPmjMQPDs8PDoziApfpNtk/CaFItsp7K+VT82NMAGM/aJ7D6uDzsI8ls2cpiBWKrXFsbjN87V/xuT597/zZLB4JH0VkBZ0fut2LEPlyAJb6T8cTA7h3JrMPi8u7QORd8SIOU3aFxZPqnO3I3W5/id/AiQ8OaXgXoPDETxd48ZRPzGAI1ItzTWZNr/QZYGC+4MKIKw3iwfvXOu+j4YXBLeYMgeVoh2J0Fa+E1kw3CYp4YNXu8rEV57t2lrZYe4qyRPNDagigAJryrcNj5m+KpJZREyR3gBgRMmgnwa9QaSzZiUZO0MA/ah1wKa2b9UmqwkEF4IQWwPPLmfx74V/pTm57ZCa8yThdHANYUsJzZ2e/ZiGwES3gPVBwMBIR3I465De4mKtYTooMCJaH9XsP4jiVi064nORp7TcgXJ6DEk+gTCC3tlb23lnzVXzl+B1TSsuSndwGgTXoOWbeec+PwJUzCW1kKAhFcLaWPfMRk5rEFUbFyT3mvDlHwEQeT9FpxoS7yGHi1mOQkvLDCw/2CY8Boh0A8/2sqPXW8hVmsjPvb3yGjME2vr7Xr0sDgDrJqxNWkESHilETbavpnrwl2Lw7Pq7OO1JGQpliuRfoHIQZ0/O0Njj/utmn96hcApST81NvK8QUjGCW91Vp19bA4EyT8z8Qa4eZrfYn0rFYV5srHS581o8lALQRlxkpWbDagjQMKrDrmdD0YHBQkNAXkdLmK5wo8b4rNsx3KEc0lJO5jg+tGrR7EZJDA6ZJvwAv0jrbjqoIIxba258vOkJbyZ/d0fTDnxuYOZ4mxFAgESXglUC2kzjVSABwm+Du8lKpePXrq6+h3c+7jmcO4Mb51zP8Z1AlgLaDFKIzryG3l0yjQI3ArjS5onuP4ZCrCd2OG0UUScnIbU2ohbyrqLoDUXMo3ZiDoCJLzqkNv6oKHTN2RDGUM3L1F50DvcNenfzrmnY2MX/z9oPK1VKMmCKr+Rp/UvVRLmxwf1kYz25U6Febf+TTVfPkE0aSIQb83+fq7mH98gxjRMeA3kU153kMFq0sI23j4Jr3EBSXfPTvDawS2+EIJvyAIGjs6PzMGrtJHndSORnyuJhB56bWzmUA5y1bDj1iCvR+3h9XL22tXuF+m9zKN96EHM43ssYgwBEl5jAtHujpn8raDNZAy/xI18rHn//4Ou1gxtJliSk5QFQX4jz+oOBNIdQascJKvBbf8MXYlDCFPew9K21HFBpoO6ZCVTAyCfsv8Cz5IWESDhtSgV5T6ZsDgoRc6aIbygxbdezP50zp0oq0zH57CbZ3QOXi0Lb85NHOgr3ac3qfMEGYCa2hfg3Liu5stniPaMuDVAD6m9unTuHruj2b8I3BLaUBlrQv9YVQEBEl4FkK1/Iqu1agMOcoMctlzN3jvnvs0qE1CAnhnrvADJTPTbFN/csrqSHBrhtXMl7hzoYG7CyAB8BnpsPc1O8BVuRcYw4P/zI0DCm18GJnpQX8yuXOW+ydKZyv1TvViqBF2ZuB5FvdyUFEkPljTYJcU64W3QS+xjvABApGv4YJjiQ90877x6Xp39dxU/yPuaFg7kd70BEae0LCQIVNs2xA+Gtz3Nuu4q7i8wybAhEQRIeEVgLa/RzAvwYSy8t2oBIgNmkvI34wKNqSWS6c8/q+hTLsKrcRuSTFCAVmhbNxkY1x0jY1KZJ5vDYcbUifI+/eXt+IfZYxLew5R756jzRUPrLUjJG3mqvgCtDdnHsoUFkoQBLHoqGzkJ78BkABLeDWGy8kIZzo83563aWnSwVGtjy2JGP+wPbrV8Wp25Rn/4O3AESHgPXAG2h59tUQJdE/qIMj9JxFiINiTAxpOdQBK/tvAen7qj+txHnj1ltAhv83zuPKGfUVWRh4u+DiTPE5Dbzm3/kvsThXRPJVjAaf78tBq6BJrTkRLErbeRHWA1QwiQ8BoSRu6uZLtmA1uDhnDMvnGCfF0BpBCpblCCCXCvgVnhDOoSFGsxwgt+1MBIkNcaLtgc/vLEHR01WVay/SZPeEGHk2wC4oehCJDwQuEsv7EsG8shEV7Qa2TZrPGdKo51SUGMTWMjrxdZMn5oEd7EdHf2dAK4OkPy8baWz8Usq6uGxjzZstJr30ipzBWgXrEpYQRIeIUBLq35+vz4qTuqm6dq1X7Ki26TD/Kx2uB2PwRbgLNbqnfGZY/caOgUgpiH66HOFS3APxlGCltiaCkjiXOwhzUyHZru1E5jnmQjvIqGlPB5zBo5ECDhzYG68W9qk6lJL7pCxLBetInccxH3XQ0GbyyI7BMaOpWH8GIPF31LEYDwwg53LeFN9+vGrrqom5rMOYY15skd4dUM0gPHFWCVh63lQoCENxfyhr+rurmAHmHwhROwkft+ar8ciBgC0nbFj6GrJmhcW5ag9GAwECEZAiqP1fFgCa/6zdPgJAHpfO65rEp4k54LD1yyFAOhA3vG4hkRIOHNCL7lTytaeaGWoDFMcxJe1OaieiAZA7T5P5hcQnQPREgGCW8OqyMoYGpMrIB5Ap/XgD6NDdv//0BCldOPF7Um+QCn5r5B666POA6yDAnvQYp9fNCASPnxj6xL/FHNly99C6eWy7hpwghAnqv0fuTRmyYJ74CWl0Pk4Tle8+UJ75IHztKuRgQ7hoGeu4MHxIVSGjbgYSR1v2F9WwiQ8NqSh6ne6GwwuI3DB7yMhBcWxJMlk0YfuAIuKRD/ZAVi2ECirk8K40LdIKDJFOQg5LNI+JXBHWAz+vGiZWSA8H6o5ksbsQ1+esRSigiQ8CqCXdqndKy8B0J4gVfRU934b+cHhEQqEMMchFeDoBgmvO+dc98aWUdxmRrSn9KOhkRDn+7mtYoLkO5+Eg08K2ZBgIQ3C+zlfFTcyqtETKBkKkZ8QD9XiAU0ZgzddWCWa6iMwC999Rq4lfOoahAUFOHF+3YrXYl7zg2kLLL58QLXpTHYYHrV/yE+IzwmhAP/PwnvgSvA2PDFrbyHQXhx15/n7rE7alOSGfnhLSoQCy/4pa8BwpueUcJXkkrBODAfcfDcrjNe/XeKaLV6Xp39d+UrvqFy2fx4wTIaHKN4jnf8WoSQLduwgwAJrx1ZmO2JqJVX+elHDJkKFRVuIVawkoQNDhwgghsfDvMRoqJHeJ2DHZyGxwSypILJFE43wlS8tzRwfOKGhb5BAMfgg6rg+kvrro8ADrwMCe+BK4DP8CUXY+S1oNdYFjPt5y2dA24qkrLwwW+vDHBsTdtAUqNEDmdvnXM/RmEXXqmsMcF148sTd3TUPHls5Ic7VOV44bIFESyjMcHIEV6cLMbGwP+XiwAJb7myU+25lJX3AAgvNGoYdt2M0h6whb48wguyhnrJQ2dThwVFAgM1b+GRI0xeAnhQCCsPqTV2cGTahFfmtTVad2PU9wDrkPAeoNBjhixkWYSSQZ9xZdgwoXmGEc/u+uDkWwZ9YAES3utqvnzmO47YckLzoqc7WILVN2YY4RXwo84wf4dUA2pxz5JuUJvwiry2pjMvYtcI1rODAAmvHVmY74mABQK6YfgAqL9hYhdjHBnxQWukjEAQFTIwCU3Gu9AAEvRxgQhYTDvHtGiDIgG5TLG63/TVlP6Dfap1D08byZdPeGndHV85WGKDAAkvVcEbAYEFefqEF7yhTHnDXxManIvA5AgvWJcGLLwgP/fJE15YLt5W91Xy1D6QupJO3X4Vv37hdcx7Q2TB4hAg4S1OZHk7DLbyHgLhfVadfbxGSa1ezP52zj1FtZfYDtRdA014tQJy1G4NgGmweskuNO0dnowgD0SJut9WRx+q1HTpdvAlE97K/eM+L0+qM3eDkCXbmD4CJLzTlzF0hGAr79QJL9xHWX1DHNQe44RGaTPXkgmaXHWJFmtlNK4fgJURLZNaJqirf6RKc+TewvvonXPV9wDonQOnRIT0iY2YRoCE17R4bHYOeC01dcILH58WufLTPOOERsvnVYmkoMlVkYT38tFLV1e/++mnQimw1V09cE2d8IJclgTiBxS0hZ/IjAAJb2YBlPh5oBUITgjH8NQljFhCWJ8by0MqQCixV9ZY/HvdAEQiz/e+pjJXsDc4ePyBa8/YUuH3fzBhRAZteg0A3P+xb8LmN627Y1Dz/x0IkPBSLaIQAFl5VTbx7QGqEl7wojz1zb6RE2xDXAv9/6r58nWUggdUUkoVpzJXsPiT8AaoUVtUfY6XSHhp3Q1VK5bfIEDCS1WIQgC0MKts4tkIL3gzAWEeJe/OSuDxCRBeFf3CksQ+8eDJY9eX6sXsvXPuW4yS4PtcQ4PqAKME33Kov7gmMIeHUIXMFeU+A7SETRhBgITXiCBK7AZgc1QhJLkIL9rn0hrhRY9PgPAqPT6h4VeKJ489hPfCOTfHrEcyfVa9pRkFAj9G1fEpk0cA4VXfM0ZVgAWKQYCEtxhR2esowBqhvnipbSYC126AzQKqRAUQXnjaqE6SqJE/VYmYYOcHngyuD0UzUJ5gxHTAjxHkLuY3OPDT4GMfTV7DlObB2Dj4/zIRIOEtU25mep0YVTxdwgt+hUnA+pmqQ/CUayJjBEfR94EmTsKKHAeeDG4IL9AKnToN8GNMXFODBiRxaB3qQCLhhef9DgKLhYtHgIS3eBHmHcDGp655WOGriJ7kILxKm6XERghK6RMhqI4qIrKr0WmnlCxC9WLWJL+PmQNe0tAgJniXGfwcsEd48YGRiaTQS59uC2no1XaHksambI0OApKFi0CAhLcIMdnuZMIiJkKahi0MMx3CC87QIGL9TFMrEdmVQroeQid6DS3gHtMlevhhQ2AObAgvMLAubRI4iZscDReZFkj3V3W6PElGIKCBhL1CJeNKwFBYtEAESHgLFJrFLkc+OSxCmkYIr85mKWBZVEp/5ateIteL5RJe4AtS+xJQmScJZKRbZwTmwCEc/ACxEb5zWEWvABbeD261fMonhH3FynJ9CJDwUjcgCERah0pZcIMxkrgqFLUiho/w52r+8U1wtZEKAo9rqOiY7IMBMq4B+1ZqMGkn4Y2eHtIuMpuOiRxahw0OEW5ZlfuperF8Gw0mKxKBDQIkvFQFGAIRhEyFjAAsDGEYCV0VRuAb1u+g0nIkDBwAdlXNl8+DhhZRGG+Z3uoEONdr3/Dg+iUUaId9DS5C2LtVRNYwuCw6hyk3h/t1LJDwCq2lyVJnA0UiQMJbpNhsdjriKk5ksxi0MFwev3J1/aswgiKWE51N0BMZIf/M5utgwquSmkyi33eSUArWqRezf51zjz01YLSYxC1Hi7OWj+voCNsCImuYjvtSAYRX6JbAT7QsNTUESHinJtHM4wn0AxTZLAYJr8pmKbORmCK8ghtRpD94v9iFLI0PP1hfzK5c5b4BT0GR9G97fRd4wYyEN14TZF1kNv1SujnYRiFsf6h/q+afXsWjyJpEYBcBEl5qBBSBNk3ZF7MrV7uvxxuWIYbDhPfLE3d09Od43xJKCG0kB0N4F+BMGkLy2CONC7AP7PoDKodCuNVUMLOEseeFReQDl0fXciZ4aO1bPQMILwPVErYgVu1GgISXmgFHwH+x1ie8zWDRV+Z7AApdQdsivMsnUlHT+HHq6JmMb6lW32evXe1+AS4GIkTwtn/ic9gfiJtqvnziX9y/pPgYlW4+oiy8gi5T/hJgyakhQMI7NYkaGU+9mHmk/9LZzPctcbJPk4pd5aItnwm6IjXG9YEkMLBlfBwiPtV7enV+/NQd1X+PdyeghJIVTsBn9FAIr5iPONy154HaSc7hRAuvqO4EzD4WnRgCJLwTE6iV4WwC2K6GX5/KRHhlfC1voRdbrPFB4EbKAAAbc0lEQVSWz3htkdwsBQivmEz2SO/l7NrPnccLexX/3c2tB/hBFtm5LU0GvaSzLiSmW9LzXXIOJxHeDJbnAHmzaMEIkPAWLDzrXR8nLrKbYv+iC/YR3f2QmDVRegMM0CdRIibhGqC1uddYP14xXeq49Wgs008DdGCkqOzcNjQXJAlvk3v2R5xMtlrKlO5rfE9goJqIvNloiwAJLxVBDIHxADbZTbGf8IoEF20+JzemQ9jkW2ujRCYNIb/qfQsvMO2dYsJ9uL+ocKDgIcyFcXKYtHSLEfWhXo2MiYFqSSJl5TEESHjHEOL/kxAYfoFNjhwmLLpJ43WCJOUQNvk14RXIpKHlC4tM76VF0mUOGGfV2cfGTULkdwhzQeTgdy+N/6vmy9ciwhlodJDwCq6d2uPk92wiQMJrUy6T6lX/5pSJ8F4+eunq6ncRkAWJ1SFs8rcygVscnZ6uQfLxCqb12rdKwzM0OCdM1sGuIylLgZilVJbw6s2HbXB7Ca+ivqcIm3XLRoCEt2z5FdH7fotdpkVXwqJ1KwnBgIsDI7w3wwGPwaqv5w97CSGQahY4gQwNYpkL7g9E8EwewQq1qSBGeNvbjoVQRhnBg3nU7Vqm/sQKnfXKRICEt0y5FdfrbotMLsLrHruj9hlV+E8yOMoO4ZWXm8BYr6v58hlc4B0NRjyxvd+KIgGAY61grRP2bw1Rk0IJ7+p5dfZfk0VH9ddjtRbFUHWA/JhpBEh4TYtnOp3bvI50vWu1kydOfQhKWU5IeDE665fHOexbkrJ52JPEtFmiWTD2+oq3IooTmIMhvNg0d3ei15wL2/rWSXiF3V/CVgmWnjICJLxTlq6xse29D5/xNR24VavBWjjVjx2/RfmDigihUbWaply566VmEgkQdE7cHUMidV3kcilK7kXWKedUD1TDhFd+LYmUK6tNEAES3gkK1fKQdixfigSkw6rl8RJcMJLCm18KiQoey0AF+U1qOLtH5FgUo8CT3BoE/cD3LdECAZwKOMsGdAXpl/CcF8kZLtrnIfQeyI1pyIJUjYVTESDhTUWQ9YMQ2FnwshJeEfIoupGIWD2DpLcprCA3GcujnuW0NfjHvOin4P+6Y3HDP+PcZGgQTUnWYisZeBo0J2R1SiKg0ClmLNk7YG2nHMx4wxckYhaeDAIkvJMRZTkDaa/mq+rUfV6eVGeuicZX/wltmKJXuYdEeFtSg/ctvarmy+dayrbnwuP3YVEd2iMgCwEL4mr5RHpeC81fPwntlJK97RCZ85mJZnsQbF69Ol2eRADOKkQgGgES3mjoWLFkBDZBdOBMDQVufjFCVLDgbQhv83DBPKaLfXU0g3Wi3BoU3Rk2GDdz4DEMYyULdRS2sEFuN1TgnFfWMRHY2SgRiECAhDcCNFaZBgKJkfQdIAhvfpfAZ2tTRKhHeN86535M6epeXeXNPijbhHDQ45519/z4qTuq/4bi62Sv+Lf7KnADEAGF9JzH+1hrHvoiAGUVIiCGAAmvGLRs2DoCQWTEZzDCwTpWrnG1NkyRSHxhGe2RypBDinrf8GRK8mntPWzxLi8+s3y3jLB7gMCcF40zCAeQNYiAHgIkvHpY80vGEID7xwlbPgU2vyiJqBHewi2Qt+DWi5nfq3EKvq+7FlKBwE1FC7oJC295c17VRzxqgWElIiCEAAmvELBs1j4CcAIpvvnJvRAXIi0twtv0Ce924lQD19oxLGYerhl6rgBbRBztI62a31VAN0Kmwbqs+Jw/PnVH9Xl4x3pqCFukYf1kQ0RAAAESXgFQ2WQZCMAD14Q3vw15qnOjq0p4m4wervoeOWbN/rcy207F1DcQBd15+Ol60T6vjQtYc+6Par58iZTVUFtCjzKEdV/YKg8PzuOrZmHyZelJIUDCOylxcjChCETlSs1IWixc42oSRhE/3hzkcignr1Jmg221hROppnFtH2SJlGqBC4jGXIDN+Qx6FggnixMBUQRIeEXhZePWEfC7bvYchYL/Ynar1hQyCSgTs9bKOxS8Zq0/nuq+V0xB/3dIOwlvqKRULfChnWN5IiCNAAmvNMJs3zQCyCdslaw9aL/LUPmoR3lDrfDtaDP4y563/tfXzrmv9omi/EMND78JPeitG1f1322lmJ/wqswFoIX3p+rFsvEn548IHCQCJLwHKXYO+hYBpB+vEuH1CIASla/KJv/Akoce83U1Xz4TRamj8W6SqU++Zcii/jhIeAM1WNkCH9g7FicC4giQ8IpDzA9YRwBlQdQhvAKppMIEpE94LwXyxQoHG3VB2uk3m4mEwKyGtwPNEP2fn/DKPjpxdyjH5BtWt8CHLSssTQTkESDhlceYXzCOAOp6V4XwnoPTFIXLRp/wrt0BsM9AZwhcW1tWd7JOqGPZ9sEna0SoXmSI/n+AZWiP08sr+V6DDif0302XOFsoHAES3sIFyO6nI4Dy49UhvF+euKOjP9NHHd1CHpIG99fUsc49RHnHypuLdF/OXrva/RKtAXuDcn9Vp8sTWHueDcEfjvH87l0xJflBCK8SOQ+FkOWJgCYCJLyaaPNbJhFA+fFqEN61lXCWMxdvHsKLJmnOZRnHRn6NT/JTzZy12xMP/qS2c1le7zJAeJ9VZx+bQETRH2S+Z3KdEQWGjROBQARIeAMBY/FpIoDw41UjvJeza1e7r/NIIpdlFG/Z1pLXvpV3/dhDdeaaJ4fVf/Vi9ndDuGEfVrJ07uG4yOvPrqU/yYSX+Xdhqs6GykaAhLds+bH3IAQQfryKG2DG1GR5CG9rGUUT/QO0egk8OJEtGCqrhVcxH3Uy4c2Qhg+0LLMZIgBFgIQXCicbKxWBGhAMpkh40Wm6AsSWkfCiLXoH6Nco8HJdFneG9gCE1oeAWeAUn1FOJrwZMmiEQcnSREAHARJeHZz5lQIQqBez5op5/2EA374rpboSIC2+I2wu4n+u5h/fBFSAFRWwTh5c5DriJmNHoBmt5HkJr948SCa8SusSbKKzISIghAAJrxCwbLY8BJKDeZR8GUXSSnmLS2+j7+oSwtd6q92bar584j30CRSsF7Mmwwcmo0Jm31BUdpUosSrN9bUlOyFIVdH1IgpHViICigiQ8CqCzU/ZRiDZclrKJpgkhsyE9/L4lavrX5OGsF05Q/5YWN8DG0JlI7n/bGZdALghBUJ4X1zJapous7wyisaXFYmAAAIkvAKgsskyEUi+MtclvJkC1/JuoBsC0KSCinc92VbPA/JvhFtEMx8WEH73USuVomU7eYwZXU6isGUlIiCIAAmvILhsujwEkq7Mq/q76sWn9xqjhvti+nZakdT3dQnru1n/Vs0/vfIdfsnlsDqTH7dkMhgvTDXf76QxKhLzeChZkwjoIUDCq4c1v1QAAmlkSs/6mex+ESsLC4QX+9TwdTVfPouFo6R6UP/dzNbdBvckMpgkOMV5nuS2kf9QkgQzKxMBMAIkvGBA2VzZCKQFhGluhPiHGLwkZ4DwtmRn8eidc9X3Xn0eK2SAvI11MfX/6b6g2z2wQaSyEV7FOZB0AFe8cUrVT9YnAhoIkPBqoMxvFIVAwgMHqjlJk9OoxUhFcbMf6l6yv/V24wfgxwv13zXiF5qP8C6faL2Sl0B4sz0IErOssA4R0ECAhFcDZX6jKAQSfB0X1Xx5qjXYejHTD1wzQnjXVt4Z6AEOGxZLSb2ZIlZZCK9ymq94uU1fpyXnC9ueJgIkvNOUK0eVgECCW4My4T1+41z9v4Shhle1RHjXvryIjA2T9+MF+e9+cKvqpDr72GCe/ZeF8DqnfYsTd6ilO0N2/WQH7CFAwmtPJuyRAQQiszWoEqcsG74hwru28oJI/4T9eHH+u3o+6j5LQBb9V3Z/ibzFoTuDjwKxzMEhQMJ7cCLngH0QqC9nr13tfvEpu12mmi9V51TSK0yhg2vKGyO8Lem9mF25yn0TM5y7OspEJqmvgZUh/ruV+8d9Xp5o+a76DDEL4VU+GNWL2d/Ouac+eNyXoTtDGF4sfSgIqG7OhwIqx1k+ArFBUeqEF0H2QsRlkfCeIzJWTJckxPuBbinGZOUeoPwZ8tpGHWiNBBUGIMuiREAFARJeFZj5kRIRqBez5hGJb4P6rkwMIGQmZIDK4/PtGsC14aaaL5/4fq+kcun+u3YPA1GEMFp4+jgEj085qC4aSlYkAhkQIOHNADo/WQYCUY87KBNCyHV1iDiUxxfStWTXhglaxpL9dw26MmzrRDAhDFGoh2WV3V6iXDaU+5gCJ+sSAW0ESHi1Eef3ikIgONdthg1HddO3THjXrg1NVPtXUUpWuZ+qF8sm1dlkflGHtu3RGz8EKOv+M80MFVGEd6WXI3gyk4QDORgESHgPRtQcaAwC4Vfl+pHskZHcMXCYDFrbsfhdHr9ydf1r3ODcH9V8+TKyrslqSS/SFXAAUCO8Ofx3gwNn9V0uTCo9O0UEehAg4aVqEIEBBMKD1/Q3nXBSniBywxbe21GlkDztoMMESXhVrRezf51zj70K7xTS1+PwPraPj9Qx9SLqqObfbfoXPK+NW+MjMGcVIgBFgIQXCicbmyICgQRK9fGJdmOEZCnwlFwBhHdNFiJfoZtQwv5ovajdX65enlpKQdannWqEN4NeBAbNqq87nisGixEBMwiQ8JoRBTtiFYFAXzrVxyfurJqXs2tXu6/FMSyF8DavsFWzi4j8vOqWPCmZReaS/uBWy6clkN3NwUbFwpvD8h90aMtAyKX0lu0SASkESHilkGW7k0IgZPPJszk+eudc9b046IUQ3i3Ld2gQW5YDi4TcQnR28/0PbrU6rc7+u5Loj0SbShbeLL7d3mPL4F8sIUu2SQSkESDhlUaY7U8CgaBo9wy+dGrpyQoivNGkV/k1LYkJEpGOrDiyq2bhzZF5pbmhOGr9r8d/Gfo33imWIAL2ECDhtScT9sgoArWv20Cm68XgFGoxOBdGeKNIbwHZCcZEF3RAaxrLpLNj4xj7v7cVdKyhof9nSPXl7UZF626KZFn3wBAg4T0wgXO48Qj4kwj91GRra5eCW0OBhDeC9F5V8+XzeE3JXzMg4OmDq+pX1YtPzauCxf0UCG8edwbflGS07hans+xwPgRIePNhzy8XiICnlTdLxLSKW0OhhDeY9Bbs1hDgzlCkG8P2siFOeDMRSq/DK627Be4g7HJOBEh4c6LPbxeHgC+pzBG4trbyzm6iXxrzkUbBhDeI9GYiOj4iGCvjqaPFk92NvktmaciWsaJezP52zj0dlHXBOjqmw/w/EZBAgIRXAlW2OWkEvKLfMwSubQhA8zTuj2ICKJzwrkmvV8qyLFfZCLmNWgfbPLvVS81nchHj6mpD1sKb5/ENLwt97f6qTpcnUriyXSIwRQRIeKcoVY5JFIHN62tN6qavej+UyfoS/jJcIFQTILx3pPfo0dvBVG4ZgpUCpbFXfEOWGutg3+tqC7daviwlz+4YHqKEN5OuewWsZTpQj8mD/ycClhEg4bUsHfbNLALjz37mCVzbWHmb3LNzEfAykQCRsTTW3qHgoAKzNQwHVubTSTH5ST0tnNE/dnxtcZN5HEVKL9guEehCgISXekEEIhGoL2ZXAy95ZQlcawnv5fErV9e/Rg5ruNrECO/a2vvlifvi6H3HS3XFPUJRL2Z/OuceXnV/cKvWhaE5CE3qJ2bhzXjYGXRJqdw/7vPyZCoW+kkpIwdjHgESXvMiYgetIjBy9XhTzZdPcvXdM5tEePcmSHjXpLdN9P/OOfftDigFjbfHneUPt1q+mipBEiK82YLVNjc0XYeWtVoWmi85fKFhDSKAR4CEF48pWzwgBOrFrD9ILGNqK49r0TgpFUQAYwbYHmK+qN/dWXsLIhg7B7DGEujq16Xm1/WVnRDhzeYyMBKwVmwgpa88WY4ISCJAwiuJLtuePALtBvXF7KrjOty5TIFrWxbLa3iKsokT3luFbVN7uepp9WLZHGiK+bU+ya66qV58bKzVk/55BXfFIJDzoNroXV393tHtrFbnGBhZhwhYQ4CE15pE2J/iEBjYeLNaZAatz7EoHwjhjYWH9fQQkCG8eVKR3R20+m6MCrpp0NMAfokIhCFAwhuGF0sTgU4EeshlXj/e8+On7qhuUlThfiS8OCzZUhICIoQ3o3W3AaP7wYm8JDxJSKxMBAwhQMJrSBjsStkIdD5IkZkgjj5CEAp55vGEdpflp4sAnvDmJZZttpCjoyZg7f7XPhKyPJ1q0OF0tZMjs4gACa9FqbBPRSKwCTh54DebN/cp/CEKEt4idXOKnYYT3tzW3f2c0E06uZMpvIg3Rf3jmMpDgIS3PJmxx4YR2Fhpmnynt6+wZcvHewsT1JeXhNew9h1W17CEN691t5Hc3m0M/XYPS6E5WnEESHjFIeYHDg2BBw8/ZPXjbTfSdY5ZTMYGEt5DU2ez44US3szW3TXhnd2/kJgxw4tZgbNjRCARARLeRABZnQh0IdCmtaqrJjXUV9V8mX2ewfLykvBS4Y0ggCO8+a27G8J700JbVa8PIa2cETViNw4Igewb8QFhzaEeGAKtZdV9+bQ6++8q99AH8wWHdI6ENwQtlhVEAER4zeS3bf3tG7579rG5jeGPCBABMAIkvGBA2RwRsIrAA1eLyG7mDcKL7DSrTRABDOGlPk9QNTgkItCJAAkvFYMIHBAC9cXsylXum/ghkyDEY8eaSASSCW/l/qleLFurKn9EgAhMHwES3unLmCMkAncIJJMER8JLdbKBQLIuMwuCDUGyF0RACQESXiWg+RkiYAWBtMcoSHityPHQ+1Hv560NgSR7usCQzrIsESAC6QiQ8KZjyBaIQFEIpKUpI+EtStgT7mxS5hEDacgmLBoOjQiYRICE16RY2CkiIItAvHWMhFdWMmzdF4F4wksd9sWY5YjAlBAg4Z2SNDkWIhCAQFwAG8lCAMQsKohAFOFloJqgRNg0EbCNAAmvbfmwd0RADIHNM8h/Bn7g/6r58nVgHRYnAnAEoggv80jD5cAGiUApCJDwliIp9pMICCBQL2ZvnXM/BjTNYJ8AsFhUDoEIwvtHNV++lOsRWyYCRMAyAiS8lqXDvhEBYQQiXmAj4RWWCZv3QyDwsGbmRTW/0bEUESACaARIeNGIsj0iUBgCgflMSXgLk+9Uu1svZhfOubnX+Jhz1wsmFiICU0aAhHfK0uXYiIAnAgHWMhJeT0xZTBaBAMJLVwZZUbB1IlAEAiS8RYiJnSQCsggEuDZcVfPlc9nesHUiMI6AJ+GlK8M4lCxBBA4CARLegxAzB0kExhHwdW2o5kuuG+NwsoQwAl6El64MwlJg80SgHAS4cZUjK/aUCIgj4OPaQMIrLgZ+wAOBejH71zn3eKAoXRk8cGQRInAoCJDwHoqkOU4i4IFA69pQzS5c5b7pK07C6wEki4gjUC9mde9HKveP+7w8qc7cjXhH+AEiQASKQICEtwgxsZNEQA+BzYMUTQT8V51fXS2fkEjoyYNf6kZgkPCuVs+rs/+uiB0RIAJE4BYBEl7qAhEgAnsI1JfHr1xd/9pNeKuz6uxjQ4j5IwJZEGhvIo5al4b9X+V+ql4smwdV+CMCRIAI3CFAwktlIAJEoBOBXn9ePs9KjcmMQH+AZf1bNf/0KnP3+HkiQAQMIkDCa1Ao7BIRsIJAvXj0zrnq+53+VNUP1YuP76z0kf04PAQ6CW/t/qpOlyeHhwZHTASIgA8CJLw+KLEMEThgBOqL2dVuEFv1czX/+OaAIeHQMyOw53JTu79cvTylb3lmwfDzRMAwAiS8hoXDrhEBCwh0ZG74v2q+fG2hb+zDYSJQL47fOFf/rx09ye5hKgFHTQQCESDhDQSMxYnAISLwgPTyeeFDVAJDY77zLyfZNSQVdoUI2EaAhNe2fNg7ImAGgc3zw6/c59UFUz6ZEctBdqRNnffF0an7vHxHN4aDVAEOmggEI0DCGwwZKxABIkAEiAARIAJEgAiUhAAJb0nSYl+JABEgAkSACBABIkAEghEg4Q2GjBWIABEgAkSACBABIkAESkKAhLckabGvRIAIEAEiQASIABEgAsEIkPAGQ8YKRIAIEAEiQASIABEgAiUhQMJbkrTYVyJABIgAESACRIAIEIFgBEh4gyFjBSJABIgAESACRIAIEIGSECDhLUla7CsRIAJEgAgQASJABIhAMAIkvMGQsQIRIAJEgAgQASJABIhASQiQ8JYkLfaVCBABIkAEiAARIAJEIBgBEt5gyFiBCBABIkAEiAARIAJEoCQESHhLkhb7SgSIABEgAkSACBABIhCMAAlvMGSsQASIABEgAkSACBABIlASAiS8JUmLfSUCRIAIEAEiQASIABEIRoCENxgyViACRIAIEAEiQASIABEoCQES3pKkxb4SASJABIgAESACRIAIBCNAwhsMGSsQASJABIgAESACRIAIlIQACW9J0mJfiQARIAJEgAgQASJABIIRIOENhowViAARIAJEgAgQASJABEpCgIS3JGmxr0SACBABIkAEiAARIALBCJDwBkPGCkSACBABIkAEiAARIAIlIUDCW5K02FciQASIABEgAkSACBCBYARIeIMhYwUiQASIABEgAkSACBCBkhAg4S1JWuwrESACRIAIEAEiQASIQDACJLzBkLECESACRIAIEAEiQASIQEkIkPCWJC32lQgQASJABIgAESACRCAYARLeYMhYgQgQASJABIgAESACRKAkBEh4S5IW+0oEiAARIAJEgAgQASIQjAAJbzBkrEAEiAARIAJEgAgQASJQEgIkvCVJi30lAkSACBABIkAEiAARCEaAhDcYMlYgAkSACBABIkAEiAARKAkBEt6SpMW+EgEiQASIABEgAkSACAQjQMIbDBkrEAEiQASIABEgAkSACJSEAAlvSdJiX4kAESACRIAIEAEiQASCESDhDYaMFYgAESACRIAIEAEiQARKQoCEtyRpsa9EgAgQASJABIgAESACwQiQ8AZDxgpEgAgQASJABIgAESACJSFAwluStNhXIkAEiAARIAJEgAgQgWAESHiDIWMFIkAEiAARIAJEgAgQgZIQIOEtSVrsKxEgAkSACBABIkAEiEAwAiS8wZCxAhEgAkSACBABIkAEiEBJCJDwliQt9pUIEAEiQASIABEgAkQgGAES3mDIWIEIEAEiQASIABEgAkSgJARIeEuSFvtKBIgAESACRIAIEAEiEIwACW8wZKxABIgAESACRIAIEAEiUBICJLwlSYt9JQJEgAgQASJABIgAEQhGgIQ3GDJWIAJEgAgQASJABIgAESgJARLekqTFvhIBIkAEiAARIAJEgAgEI0DCGwwZKxABIkAEiAARIAJEgAiUhAAJb0nSYl+JABEgAkSACBABIkAEghEg4Q2GjBWIABEgAkSACBABIkAESkLg/wErX76EHFa9oQAAAABJRU5ErkJggg==;" vertex="1" parent="1">
                    <mxGeometry x="30" y="25" width="77.27" height="85" as="geometry"/>
                </mxCell>
            </root>
        </mxGraphModel>
    </diagram>
</mxfile>